<mxfile host="app.diagrams.net" modified="2021-12-18T13:47:39.749Z" agent="5.0 (Macintosh; Intel Mac OS X 10_15_7) AppleWebKit/537.36 (KHTML, like Gecko) Chrome/96.0.4664.93 Safari/537.36" etag="PsIJaaWkIF9z--coOf1l" version="15.9.4" type="github">
  <diagram id="JakM4qNWl7hJP-m3ATIQ" name="第 1 页">
    <mxGraphModel dx="1426" dy="661" grid="1" gridSize="10" guides="1" tooltips="1" connect="1" arrows="1" fold="1" page="1" pageScale="1" pageWidth="827" pageHeight="1169" math="0" shadow="0">
      <root>
        <mxCell id="0" />
        <mxCell id="1" parent="0" />
        <mxCell id="oKhAJ4XqfEPKX5TirftQ-30" value="" style="rounded=0;whiteSpace=wrap;html=1;shadow=0;dashed=1;sketch=0;strokeColor=#666666;opacity=50;fillColor=#f5f5f5;fontColor=#333333;" vertex="1" parent="1">
          <mxGeometry x="420" y="280" width="90" height="130" as="geometry" />
        </mxCell>
        <mxCell id="oKhAJ4XqfEPKX5TirftQ-13" value="" style="rounded=0;whiteSpace=wrap;html=1;shadow=0;sketch=0;fillColor=#ffcd28;strokeColor=#d79b00;opacity=50;dashed=1;gradientColor=#ffa500;" vertex="1" parent="1">
          <mxGeometry x="140" y="350" width="240" height="60" as="geometry" />
        </mxCell>
        <mxCell id="oKhAJ4XqfEPKX5TirftQ-11" value="" style="rounded=0;whiteSpace=wrap;html=1;shadow=0;sketch=0;fillColor=#dae8fc;strokeColor=#6c8ebf;opacity=50;dashed=1;" vertex="1" parent="1">
          <mxGeometry x="140" y="270" width="240" height="60" as="geometry" />
        </mxCell>
        <mxCell id="oKhAJ4XqfEPKX5TirftQ-10" value="" style="rounded=0;whiteSpace=wrap;html=1;shadow=0;sketch=0;fillColor=#dae8fc;strokeColor=#6c8ebf;opacity=50;dashed=1;" vertex="1" parent="1">
          <mxGeometry x="140" y="190" width="240" height="60" as="geometry" />
        </mxCell>
        <mxCell id="oKhAJ4XqfEPKX5TirftQ-6" style="rounded=0;orthogonalLoop=1;jettySize=auto;html=1;exitX=0;exitY=1;exitDx=0;exitDy=0;entryX=0.5;entryY=0;entryDx=0;entryDy=0;endArrow=none;endFill=0;sketch=0;" edge="1" parent="1" source="oKhAJ4XqfEPKX5TirftQ-1" target="oKhAJ4XqfEPKX5TirftQ-2">
          <mxGeometry relative="1" as="geometry" />
        </mxCell>
        <mxCell id="oKhAJ4XqfEPKX5TirftQ-7" style="edgeStyle=none;rounded=0;orthogonalLoop=1;jettySize=auto;html=1;exitX=1;exitY=1;exitDx=0;exitDy=0;entryX=0.5;entryY=0;entryDx=0;entryDy=0;endArrow=none;endFill=0;sketch=0;" edge="1" parent="1" source="oKhAJ4XqfEPKX5TirftQ-1" target="oKhAJ4XqfEPKX5TirftQ-3">
          <mxGeometry relative="1" as="geometry" />
        </mxCell>
        <mxCell id="oKhAJ4XqfEPKX5TirftQ-1" value="&lt;font face=&quot;Comic Sans MS&quot;&gt;3&lt;/font&gt;" style="ellipse;whiteSpace=wrap;html=1;fillColor=#f5f5f5;strokeColor=#666666;shadow=1;fontColor=#333333;sketch=0;" vertex="1" parent="1">
          <mxGeometry x="240" y="200" width="40" height="40" as="geometry" />
        </mxCell>
        <mxCell id="oKhAJ4XqfEPKX5TirftQ-2" value="&lt;font face=&quot;Comic Sans MS&quot;&gt;9&lt;/font&gt;" style="ellipse;whiteSpace=wrap;html=1;fillColor=#f5f5f5;strokeColor=#666666;shadow=1;fontColor=#333333;sketch=0;" vertex="1" parent="1">
          <mxGeometry x="200" y="280" width="40" height="40" as="geometry" />
        </mxCell>
        <mxCell id="oKhAJ4XqfEPKX5TirftQ-8" style="edgeStyle=none;rounded=0;orthogonalLoop=1;jettySize=auto;html=1;exitX=0;exitY=1;exitDx=0;exitDy=0;entryX=0.5;entryY=0;entryDx=0;entryDy=0;endArrow=none;endFill=0;sketch=0;" edge="1" parent="1" source="oKhAJ4XqfEPKX5TirftQ-3" target="oKhAJ4XqfEPKX5TirftQ-4">
          <mxGeometry relative="1" as="geometry" />
        </mxCell>
        <mxCell id="oKhAJ4XqfEPKX5TirftQ-9" style="edgeStyle=none;rounded=0;orthogonalLoop=1;jettySize=auto;html=1;exitX=1;exitY=1;exitDx=0;exitDy=0;entryX=0.5;entryY=0;entryDx=0;entryDy=0;endArrow=none;endFill=0;sketch=0;" edge="1" parent="1" source="oKhAJ4XqfEPKX5TirftQ-3" target="oKhAJ4XqfEPKX5TirftQ-5">
          <mxGeometry relative="1" as="geometry" />
        </mxCell>
        <mxCell id="oKhAJ4XqfEPKX5TirftQ-3" value="&lt;font face=&quot;Comic Sans MS&quot;&gt;20&lt;/font&gt;" style="ellipse;whiteSpace=wrap;html=1;fillColor=#f5f5f5;strokeColor=#666666;shadow=1;fontColor=#333333;sketch=0;" vertex="1" parent="1">
          <mxGeometry x="280" y="280" width="40" height="40" as="geometry" />
        </mxCell>
        <mxCell id="oKhAJ4XqfEPKX5TirftQ-4" value="&lt;font face=&quot;Comic Sans MS&quot;&gt;15&lt;/font&gt;" style="ellipse;whiteSpace=wrap;html=1;fillColor=#f5f5f5;strokeColor=#666666;shadow=1;fontColor=#333333;sketch=0;" vertex="1" parent="1">
          <mxGeometry x="240" y="360" width="40" height="40" as="geometry" />
        </mxCell>
        <mxCell id="oKhAJ4XqfEPKX5TirftQ-5" value="&lt;font face=&quot;Comic Sans MS&quot;&gt;7&lt;/font&gt;" style="ellipse;whiteSpace=wrap;html=1;shadow=1;fillColor=#f5f5f5;fontColor=#333333;strokeColor=#666666;sketch=0;" vertex="1" parent="1">
          <mxGeometry x="320" y="360" width="40" height="40" as="geometry" />
        </mxCell>
        <mxCell id="oKhAJ4XqfEPKX5TirftQ-29" value="&lt;font face=&quot;Comic Sans MS&quot;&gt;Result&lt;/font&gt;" style="text;html=1;strokeColor=none;fillColor=none;align=center;verticalAlign=middle;whiteSpace=wrap;rounded=0;shadow=0;dashed=1;sketch=0;" vertex="1" parent="1">
          <mxGeometry x="420" y="410" width="90" height="30" as="geometry" />
        </mxCell>
        <mxCell id="oKhAJ4XqfEPKX5TirftQ-36" value="" style="rounded=0;whiteSpace=wrap;html=1;shadow=0;dashed=1;sketch=0;strokeColor=#666666;opacity=50;fillColor=#f5f5f5;fontColor=#333333;" vertex="1" parent="1">
          <mxGeometry x="420" y="200" width="230" height="40" as="geometry" />
        </mxCell>
        <mxCell id="oKhAJ4XqfEPKX5TirftQ-37" value="3" style="ellipse;whiteSpace=wrap;html=1;fillColor=#f5f5f5;strokeColor=#666666;shadow=0;fontColor=#333333;sketch=0;" vertex="1" parent="1">
          <mxGeometry x="430" y="205" width="30" height="30" as="geometry" />
        </mxCell>
        <mxCell id="oKhAJ4XqfEPKX5TirftQ-40" value="" style="line;strokeWidth=2;direction=south;html=1;perimeter=backbonePerimeter;points=[];outlineConnect=0;shadow=0;sketch=0;opacity=50;" vertex="1" parent="1">
          <mxGeometry x="452.5" y="190" width="27.5" height="60" as="geometry" />
        </mxCell>
        <mxCell id="oKhAJ4XqfEPKX5TirftQ-41" value="&lt;font face=&quot;Comic Sans MS&quot;&gt;Queue&lt;/font&gt;" style="text;html=1;strokeColor=none;fillColor=none;align=center;verticalAlign=middle;whiteSpace=wrap;rounded=0;shadow=0;sketch=0;opacity=50;" vertex="1" parent="1">
          <mxGeometry x="420" y="160" width="40" height="40" as="geometry" />
        </mxCell>
        <mxCell id="oKhAJ4XqfEPKX5TirftQ-42" value="&lt;font face=&quot;Comic Sans MS&quot;&gt;第1层&lt;/font&gt;" style="text;html=1;strokeColor=none;fillColor=none;align=center;verticalAlign=middle;whiteSpace=wrap;rounded=0;shadow=0;sketch=0;opacity=50;" vertex="1" parent="1">
          <mxGeometry x="420" y="240" width="40" height="30" as="geometry" />
        </mxCell>
        <mxCell id="oKhAJ4XqfEPKX5TirftQ-45" value="迭代:3-1" style="rounded=0;whiteSpace=wrap;html=1;shadow=0;sketch=0;fontFamily=Comic Sans MS;strokeColor=default;strokeWidth=1;opacity=0;" vertex="1" parent="1">
          <mxGeometry x="360" y="120" width="80" height="30" as="geometry" />
        </mxCell>
        <mxCell id="oKhAJ4XqfEPKX5TirftQ-46" value="9" style="ellipse;whiteSpace=wrap;html=1;fillColor=#f5f5f5;strokeColor=#666666;shadow=0;fontColor=#333333;sketch=0;" vertex="1" parent="1">
          <mxGeometry x="480" y="205" width="30" height="30" as="geometry" />
        </mxCell>
        <mxCell id="oKhAJ4XqfEPKX5TirftQ-47" value="20" style="ellipse;whiteSpace=wrap;html=1;fillColor=#f5f5f5;strokeColor=#666666;shadow=0;fontColor=#333333;sketch=0;" vertex="1" parent="1">
          <mxGeometry x="520" y="205" width="30" height="30" as="geometry" />
        </mxCell>
        <mxCell id="oKhAJ4XqfEPKX5TirftQ-48" value="" style="line;strokeWidth=2;direction=south;html=1;perimeter=backbonePerimeter;points=[];outlineConnect=0;shadow=0;sketch=0;opacity=50;" vertex="1" parent="1">
          <mxGeometry x="540" y="190" width="30" height="60" as="geometry" />
        </mxCell>
        <mxCell id="oKhAJ4XqfEPKX5TirftQ-49" value="&lt;font face=&quot;Comic Sans MS&quot;&gt;第2层&lt;/font&gt;" style="text;html=1;strokeColor=none;fillColor=none;align=center;verticalAlign=middle;whiteSpace=wrap;rounded=0;shadow=0;sketch=0;opacity=50;" vertex="1" parent="1">
          <mxGeometry x="460" y="240" width="90" height="30" as="geometry" />
        </mxCell>
        <mxCell id="oKhAJ4XqfEPKX5TirftQ-50" value="&lt;font face=&quot;Comic Sans MS&quot;&gt;第1层&lt;/font&gt;" style="text;html=1;strokeColor=none;fillColor=none;align=center;verticalAlign=middle;whiteSpace=wrap;rounded=0;shadow=0;sketch=0;opacity=50;" vertex="1" parent="1">
          <mxGeometry x="100" y="205" width="40" height="30" as="geometry" />
        </mxCell>
        <mxCell id="oKhAJ4XqfEPKX5TirftQ-51" value="&lt;font face=&quot;Comic Sans MS&quot;&gt;第2层&lt;/font&gt;" style="text;html=1;strokeColor=none;fillColor=none;align=center;verticalAlign=middle;whiteSpace=wrap;rounded=0;shadow=0;sketch=0;opacity=50;" vertex="1" parent="1">
          <mxGeometry x="100" y="282.5" width="40" height="35" as="geometry" />
        </mxCell>
        <mxCell id="oKhAJ4XqfEPKX5TirftQ-52" value="&lt;font face=&quot;Comic Sans MS&quot;&gt;第3层&lt;/font&gt;" style="text;html=1;strokeColor=none;fillColor=none;align=center;verticalAlign=middle;whiteSpace=wrap;rounded=0;shadow=0;sketch=0;opacity=50;" vertex="1" parent="1">
          <mxGeometry x="100" y="362.5" width="40" height="35" as="geometry" />
        </mxCell>
        <mxCell id="oKhAJ4XqfEPKX5TirftQ-53" value="3" style="ellipse;whiteSpace=wrap;html=1;fillColor=#dae8fc;strokeColor=#6c8ebf;shadow=0;sketch=0;gradientColor=#7ea6e0;" vertex="1" parent="1">
          <mxGeometry x="430" y="290" width="30" height="30" as="geometry" />
        </mxCell>
        <mxCell id="oKhAJ4XqfEPKX5TirftQ-56" value="&lt;font face=&quot;Comic Sans MS&quot;&gt;15&lt;/font&gt;" style="ellipse;whiteSpace=wrap;html=1;fillColor=#f5f5f5;strokeColor=#666666;shadow=0;sketch=0;fontColor=#333333;" vertex="1" parent="1">
          <mxGeometry x="570" y="205" width="30" height="30" as="geometry" />
        </mxCell>
        <mxCell id="oKhAJ4XqfEPKX5TirftQ-57" value="&lt;font face=&quot;Comic Sans MS&quot;&gt;7&lt;/font&gt;" style="ellipse;whiteSpace=wrap;html=1;fillColor=#f8cecc;strokeColor=#b85450;shadow=0;sketch=0;" vertex="1" parent="1">
          <mxGeometry x="610" y="205" width="30" height="30" as="geometry" />
        </mxCell>
        <mxCell id="oKhAJ4XqfEPKX5TirftQ-58" value="&lt;font face=&quot;Comic Sans MS&quot;&gt;第3层&lt;/font&gt;" style="text;html=1;strokeColor=none;fillColor=none;align=center;verticalAlign=middle;whiteSpace=wrap;rounded=0;shadow=0;sketch=0;opacity=50;" vertex="1" parent="1">
          <mxGeometry x="550" y="240" width="90" height="30" as="geometry" />
        </mxCell>
        <mxCell id="oKhAJ4XqfEPKX5TirftQ-59" value="&lt;font face=&quot;Comic Sans MS&quot;&gt;9&lt;/font&gt;" style="ellipse;whiteSpace=wrap;html=1;fillColor=#dae8fc;strokeColor=#6c8ebf;shadow=0;sketch=0;gradientColor=#7ea6e0;" vertex="1" parent="1">
          <mxGeometry x="430" y="330" width="30" height="30" as="geometry" />
        </mxCell>
        <mxCell id="oKhAJ4XqfEPKX5TirftQ-60" value="&lt;font face=&quot;Comic Sans MS&quot;&gt;20&lt;/font&gt;" style="ellipse;whiteSpace=wrap;html=1;fillColor=#dae8fc;strokeColor=#6c8ebf;shadow=0;sketch=0;gradientColor=#7ea6e0;" vertex="1" parent="1">
          <mxGeometry x="470" y="330" width="30" height="30" as="geometry" />
        </mxCell>
        <mxCell id="oKhAJ4XqfEPKX5TirftQ-63" value="" style="rounded=0;whiteSpace=wrap;html=1;shadow=0;dashed=1;sketch=0;strokeColor=#666666;opacity=50;fillColor=#f5f5f5;fontColor=#333333;" vertex="1" parent="1">
          <mxGeometry x="1010" y="680" width="90" height="130" as="geometry" />
        </mxCell>
        <mxCell id="oKhAJ4XqfEPKX5TirftQ-64" value="" style="rounded=0;whiteSpace=wrap;html=1;shadow=0;sketch=0;fillColor=#dae8fc;strokeColor=#6c8ebf;opacity=50;dashed=1;" vertex="1" parent="1">
          <mxGeometry x="730" y="750" width="240" height="60" as="geometry" />
        </mxCell>
        <mxCell id="oKhAJ4XqfEPKX5TirftQ-65" value="" style="rounded=0;whiteSpace=wrap;html=1;shadow=0;sketch=0;fillColor=#ffcd28;strokeColor=#d79b00;opacity=50;dashed=1;gradientColor=#ffa500;" vertex="1" parent="1">
          <mxGeometry x="730" y="670" width="240" height="60" as="geometry" />
        </mxCell>
        <mxCell id="oKhAJ4XqfEPKX5TirftQ-66" value="" style="rounded=0;whiteSpace=wrap;html=1;shadow=0;sketch=0;fillColor=#dae8fc;strokeColor=#6c8ebf;opacity=50;dashed=1;" vertex="1" parent="1">
          <mxGeometry x="730" y="590" width="240" height="60" as="geometry" />
        </mxCell>
        <mxCell id="oKhAJ4XqfEPKX5TirftQ-67" style="rounded=0;orthogonalLoop=1;jettySize=auto;html=1;exitX=0;exitY=1;exitDx=0;exitDy=0;entryX=0.5;entryY=0;entryDx=0;entryDy=0;endArrow=none;endFill=0;sketch=0;" edge="1" parent="1" source="oKhAJ4XqfEPKX5TirftQ-69" target="oKhAJ4XqfEPKX5TirftQ-70">
          <mxGeometry relative="1" as="geometry" />
        </mxCell>
        <mxCell id="oKhAJ4XqfEPKX5TirftQ-68" style="edgeStyle=none;rounded=0;orthogonalLoop=1;jettySize=auto;html=1;exitX=1;exitY=1;exitDx=0;exitDy=0;entryX=0.5;entryY=0;entryDx=0;entryDy=0;endArrow=none;endFill=0;sketch=0;" edge="1" parent="1" source="oKhAJ4XqfEPKX5TirftQ-69" target="oKhAJ4XqfEPKX5TirftQ-73">
          <mxGeometry relative="1" as="geometry" />
        </mxCell>
        <mxCell id="oKhAJ4XqfEPKX5TirftQ-69" value="&lt;font face=&quot;Comic Sans MS&quot;&gt;3&lt;/font&gt;" style="ellipse;whiteSpace=wrap;html=1;fillColor=#f5f5f5;strokeColor=#666666;shadow=1;fontColor=#333333;sketch=0;" vertex="1" parent="1">
          <mxGeometry x="830" y="600" width="40" height="40" as="geometry" />
        </mxCell>
        <mxCell id="oKhAJ4XqfEPKX5TirftQ-70" value="&lt;font face=&quot;Comic Sans MS&quot;&gt;9&lt;/font&gt;" style="ellipse;whiteSpace=wrap;html=1;fillColor=#f5f5f5;strokeColor=#666666;shadow=1;fontColor=#333333;sketch=0;" vertex="1" parent="1">
          <mxGeometry x="790" y="680" width="40" height="40" as="geometry" />
        </mxCell>
        <mxCell id="oKhAJ4XqfEPKX5TirftQ-71" style="edgeStyle=none;rounded=0;orthogonalLoop=1;jettySize=auto;html=1;exitX=0;exitY=1;exitDx=0;exitDy=0;entryX=0.5;entryY=0;entryDx=0;entryDy=0;endArrow=none;endFill=0;sketch=0;" edge="1" parent="1" source="oKhAJ4XqfEPKX5TirftQ-73" target="oKhAJ4XqfEPKX5TirftQ-74">
          <mxGeometry relative="1" as="geometry" />
        </mxCell>
        <mxCell id="oKhAJ4XqfEPKX5TirftQ-72" style="edgeStyle=none;rounded=0;orthogonalLoop=1;jettySize=auto;html=1;exitX=1;exitY=1;exitDx=0;exitDy=0;entryX=0.5;entryY=0;entryDx=0;entryDy=0;endArrow=none;endFill=0;sketch=0;" edge="1" parent="1" source="oKhAJ4XqfEPKX5TirftQ-73" target="oKhAJ4XqfEPKX5TirftQ-75">
          <mxGeometry relative="1" as="geometry" />
        </mxCell>
        <mxCell id="oKhAJ4XqfEPKX5TirftQ-73" value="&lt;font face=&quot;Comic Sans MS&quot;&gt;20&lt;/font&gt;" style="ellipse;whiteSpace=wrap;html=1;fillColor=#f5f5f5;strokeColor=#666666;shadow=1;fontColor=#333333;sketch=0;" vertex="1" parent="1">
          <mxGeometry x="870" y="680" width="40" height="40" as="geometry" />
        </mxCell>
        <mxCell id="oKhAJ4XqfEPKX5TirftQ-74" value="&lt;font face=&quot;Comic Sans MS&quot;&gt;15&lt;/font&gt;" style="ellipse;whiteSpace=wrap;html=1;fillColor=#f5f5f5;strokeColor=#666666;shadow=1;fontColor=#333333;sketch=0;" vertex="1" parent="1">
          <mxGeometry x="830" y="760" width="40" height="40" as="geometry" />
        </mxCell>
        <mxCell id="oKhAJ4XqfEPKX5TirftQ-75" value="&lt;font face=&quot;Comic Sans MS&quot;&gt;7&lt;/font&gt;" style="ellipse;whiteSpace=wrap;html=1;shadow=1;fillColor=#f8cecc;strokeColor=#b85450;sketch=0;" vertex="1" parent="1">
          <mxGeometry x="910" y="760" width="40" height="40" as="geometry" />
        </mxCell>
        <mxCell id="oKhAJ4XqfEPKX5TirftQ-76" value="&lt;font face=&quot;Comic Sans MS&quot;&gt;Result&lt;/font&gt;" style="text;html=1;strokeColor=none;fillColor=none;align=center;verticalAlign=middle;whiteSpace=wrap;rounded=0;shadow=0;dashed=1;sketch=0;" vertex="1" parent="1">
          <mxGeometry x="1010" y="810" width="90" height="30" as="geometry" />
        </mxCell>
        <mxCell id="oKhAJ4XqfEPKX5TirftQ-77" value="" style="rounded=0;whiteSpace=wrap;html=1;shadow=0;dashed=1;sketch=0;strokeColor=#666666;opacity=50;fillColor=#f5f5f5;fontColor=#333333;" vertex="1" parent="1">
          <mxGeometry x="1010" y="600" width="230" height="40" as="geometry" />
        </mxCell>
        <mxCell id="oKhAJ4XqfEPKX5TirftQ-78" value="3" style="ellipse;whiteSpace=wrap;html=1;fillColor=#f5f5f5;strokeColor=#666666;shadow=0;fontColor=#333333;sketch=0;" vertex="1" parent="1">
          <mxGeometry x="1020" y="605" width="30" height="30" as="geometry" />
        </mxCell>
        <mxCell id="oKhAJ4XqfEPKX5TirftQ-79" value="" style="line;strokeWidth=2;direction=south;html=1;perimeter=backbonePerimeter;points=[];outlineConnect=0;shadow=0;sketch=0;opacity=50;" vertex="1" parent="1">
          <mxGeometry x="1042.5" y="590" width="27.5" height="60" as="geometry" />
        </mxCell>
        <mxCell id="oKhAJ4XqfEPKX5TirftQ-80" value="&lt;font face=&quot;Comic Sans MS&quot;&gt;Queue&lt;/font&gt;" style="text;html=1;strokeColor=none;fillColor=none;align=center;verticalAlign=middle;whiteSpace=wrap;rounded=0;shadow=0;sketch=0;opacity=50;" vertex="1" parent="1">
          <mxGeometry x="1010" y="560" width="40" height="40" as="geometry" />
        </mxCell>
        <mxCell id="oKhAJ4XqfEPKX5TirftQ-81" value="&lt;font face=&quot;Comic Sans MS&quot;&gt;第1层&lt;/font&gt;" style="text;html=1;strokeColor=none;fillColor=none;align=center;verticalAlign=middle;whiteSpace=wrap;rounded=0;shadow=0;sketch=0;opacity=50;" vertex="1" parent="1">
          <mxGeometry x="1010" y="640" width="40" height="30" as="geometry" />
        </mxCell>
        <mxCell id="oKhAJ4XqfEPKX5TirftQ-82" value="迭代:2-2" style="rounded=0;whiteSpace=wrap;html=1;shadow=0;sketch=0;fontFamily=Comic Sans MS;strokeColor=default;strokeWidth=1;opacity=0;" vertex="1" parent="1">
          <mxGeometry x="950" y="520" width="80" height="30" as="geometry" />
        </mxCell>
        <mxCell id="oKhAJ4XqfEPKX5TirftQ-83" value="9" style="ellipse;whiteSpace=wrap;html=1;fillColor=#f5f5f5;strokeColor=#666666;shadow=0;fontColor=#333333;sketch=0;" vertex="1" parent="1">
          <mxGeometry x="1070" y="605" width="30" height="30" as="geometry" />
        </mxCell>
        <mxCell id="oKhAJ4XqfEPKX5TirftQ-84" value="20" style="ellipse;whiteSpace=wrap;html=1;fillColor=#f8cecc;strokeColor=#b85450;shadow=0;sketch=0;" vertex="1" parent="1">
          <mxGeometry x="1110" y="605" width="30" height="30" as="geometry" />
        </mxCell>
        <mxCell id="oKhAJ4XqfEPKX5TirftQ-85" value="" style="line;strokeWidth=2;direction=south;html=1;perimeter=backbonePerimeter;points=[];outlineConnect=0;shadow=0;sketch=0;opacity=50;" vertex="1" parent="1">
          <mxGeometry x="1130" y="590" width="30" height="60" as="geometry" />
        </mxCell>
        <mxCell id="oKhAJ4XqfEPKX5TirftQ-86" value="&lt;font face=&quot;Comic Sans MS&quot;&gt;第2层&lt;/font&gt;" style="text;html=1;strokeColor=none;fillColor=none;align=center;verticalAlign=middle;whiteSpace=wrap;rounded=0;shadow=0;sketch=0;opacity=50;" vertex="1" parent="1">
          <mxGeometry x="1050" y="640" width="90" height="30" as="geometry" />
        </mxCell>
        <mxCell id="oKhAJ4XqfEPKX5TirftQ-87" value="&lt;font face=&quot;Comic Sans MS&quot;&gt;第1层&lt;/font&gt;" style="text;html=1;strokeColor=none;fillColor=none;align=center;verticalAlign=middle;whiteSpace=wrap;rounded=0;shadow=0;sketch=0;opacity=50;" vertex="1" parent="1">
          <mxGeometry x="690" y="605" width="40" height="30" as="geometry" />
        </mxCell>
        <mxCell id="oKhAJ4XqfEPKX5TirftQ-88" value="&lt;font face=&quot;Comic Sans MS&quot;&gt;第2层&lt;/font&gt;" style="text;html=1;strokeColor=none;fillColor=none;align=center;verticalAlign=middle;whiteSpace=wrap;rounded=0;shadow=0;sketch=0;opacity=50;" vertex="1" parent="1">
          <mxGeometry x="690" y="682.5" width="40" height="35" as="geometry" />
        </mxCell>
        <mxCell id="oKhAJ4XqfEPKX5TirftQ-89" value="&lt;font face=&quot;Comic Sans MS&quot;&gt;第3层&lt;/font&gt;" style="text;html=1;strokeColor=none;fillColor=none;align=center;verticalAlign=middle;whiteSpace=wrap;rounded=0;shadow=0;sketch=0;opacity=50;" vertex="1" parent="1">
          <mxGeometry x="690" y="762.5" width="40" height="35" as="geometry" />
        </mxCell>
        <mxCell id="oKhAJ4XqfEPKX5TirftQ-90" value="3" style="ellipse;whiteSpace=wrap;html=1;fillColor=#dae8fc;strokeColor=#6c8ebf;shadow=0;sketch=0;gradientColor=#7ea6e0;" vertex="1" parent="1">
          <mxGeometry x="1020" y="690" width="30" height="30" as="geometry" />
        </mxCell>
        <mxCell id="oKhAJ4XqfEPKX5TirftQ-91" value="&lt;font face=&quot;Comic Sans MS&quot;&gt;15&lt;/font&gt;" style="ellipse;whiteSpace=wrap;html=1;fillColor=#f8cecc;strokeColor=#b85450;shadow=0;sketch=0;" vertex="1" parent="1">
          <mxGeometry x="1160" y="605" width="30" height="30" as="geometry" />
        </mxCell>
        <mxCell id="oKhAJ4XqfEPKX5TirftQ-93" value="&lt;font face=&quot;Comic Sans MS&quot;&gt;第3层&lt;/font&gt;" style="text;html=1;strokeColor=none;fillColor=none;align=center;verticalAlign=middle;whiteSpace=wrap;rounded=0;shadow=0;sketch=0;opacity=50;" vertex="1" parent="1">
          <mxGeometry x="1140" y="640" width="90" height="30" as="geometry" />
        </mxCell>
        <mxCell id="oKhAJ4XqfEPKX5TirftQ-94" value="&lt;font face=&quot;Comic Sans MS&quot;&gt;9&lt;/font&gt;" style="ellipse;whiteSpace=wrap;html=1;fillColor=#dae8fc;strokeColor=#6c8ebf;shadow=0;sketch=0;gradientColor=#7ea6e0;" vertex="1" parent="1">
          <mxGeometry x="1020" y="730" width="30" height="30" as="geometry" />
        </mxCell>
        <mxCell id="oKhAJ4XqfEPKX5TirftQ-98" value="" style="rounded=0;whiteSpace=wrap;html=1;shadow=0;dashed=1;sketch=0;strokeColor=#666666;opacity=50;fillColor=#f5f5f5;fontColor=#333333;" vertex="1" parent="1">
          <mxGeometry x="1610" y="680" width="90" height="130" as="geometry" />
        </mxCell>
        <mxCell id="oKhAJ4XqfEPKX5TirftQ-99" value="" style="rounded=0;whiteSpace=wrap;html=1;shadow=0;sketch=0;fillColor=#dae8fc;strokeColor=#6c8ebf;opacity=50;dashed=1;" vertex="1" parent="1">
          <mxGeometry x="1330" y="750" width="240" height="60" as="geometry" />
        </mxCell>
        <mxCell id="oKhAJ4XqfEPKX5TirftQ-100" value="" style="rounded=0;whiteSpace=wrap;html=1;shadow=0;sketch=0;fillColor=#dae8fc;strokeColor=#6c8ebf;opacity=50;dashed=1;" vertex="1" parent="1">
          <mxGeometry x="1330" y="670" width="240" height="60" as="geometry" />
        </mxCell>
        <mxCell id="oKhAJ4XqfEPKX5TirftQ-101" value="" style="rounded=0;whiteSpace=wrap;html=1;shadow=0;sketch=0;fillColor=#ffcd28;strokeColor=#d79b00;opacity=50;dashed=1;gradientColor=#ffa500;" vertex="1" parent="1">
          <mxGeometry x="1330" y="590" width="240" height="60" as="geometry" />
        </mxCell>
        <mxCell id="oKhAJ4XqfEPKX5TirftQ-102" style="rounded=0;orthogonalLoop=1;jettySize=auto;html=1;exitX=0;exitY=1;exitDx=0;exitDy=0;entryX=0.5;entryY=0;entryDx=0;entryDy=0;endArrow=none;endFill=0;" edge="1" parent="1" source="oKhAJ4XqfEPKX5TirftQ-104" target="oKhAJ4XqfEPKX5TirftQ-105">
          <mxGeometry relative="1" as="geometry" />
        </mxCell>
        <mxCell id="oKhAJ4XqfEPKX5TirftQ-103" style="edgeStyle=none;rounded=0;orthogonalLoop=1;jettySize=auto;html=1;exitX=1;exitY=1;exitDx=0;exitDy=0;entryX=0.5;entryY=0;entryDx=0;entryDy=0;endArrow=none;endFill=0;" edge="1" parent="1" source="oKhAJ4XqfEPKX5TirftQ-104" target="oKhAJ4XqfEPKX5TirftQ-108">
          <mxGeometry relative="1" as="geometry" />
        </mxCell>
        <mxCell id="oKhAJ4XqfEPKX5TirftQ-104" value="&lt;font face=&quot;Comic Sans MS&quot;&gt;3&lt;/font&gt;" style="ellipse;whiteSpace=wrap;html=1;fillColor=#f5f5f5;strokeColor=#666666;shadow=1;fontColor=#333333;" vertex="1" parent="1">
          <mxGeometry x="1430" y="600" width="40" height="40" as="geometry" />
        </mxCell>
        <mxCell id="oKhAJ4XqfEPKX5TirftQ-105" value="&lt;font face=&quot;Comic Sans MS&quot;&gt;9&lt;/font&gt;" style="ellipse;whiteSpace=wrap;html=1;fillColor=#f5f5f5;strokeColor=#666666;shadow=1;fontColor=#333333;" vertex="1" parent="1">
          <mxGeometry x="1390" y="680" width="40" height="40" as="geometry" />
        </mxCell>
        <mxCell id="oKhAJ4XqfEPKX5TirftQ-106" style="edgeStyle=none;rounded=0;orthogonalLoop=1;jettySize=auto;html=1;exitX=0;exitY=1;exitDx=0;exitDy=0;entryX=0.5;entryY=0;entryDx=0;entryDy=0;endArrow=none;endFill=0;" edge="1" parent="1" source="oKhAJ4XqfEPKX5TirftQ-108" target="oKhAJ4XqfEPKX5TirftQ-109">
          <mxGeometry relative="1" as="geometry" />
        </mxCell>
        <mxCell id="oKhAJ4XqfEPKX5TirftQ-107" style="edgeStyle=none;rounded=0;orthogonalLoop=1;jettySize=auto;html=1;exitX=1;exitY=1;exitDx=0;exitDy=0;entryX=0.5;entryY=0;entryDx=0;entryDy=0;endArrow=none;endFill=0;" edge="1" parent="1" source="oKhAJ4XqfEPKX5TirftQ-108" target="oKhAJ4XqfEPKX5TirftQ-110">
          <mxGeometry relative="1" as="geometry" />
        </mxCell>
        <mxCell id="oKhAJ4XqfEPKX5TirftQ-108" value="&lt;font face=&quot;Comic Sans MS&quot;&gt;20&lt;/font&gt;" style="ellipse;whiteSpace=wrap;html=1;fillColor=#f5f5f5;strokeColor=#666666;shadow=1;fontColor=#333333;" vertex="1" parent="1">
          <mxGeometry x="1470" y="680" width="40" height="40" as="geometry" />
        </mxCell>
        <mxCell id="oKhAJ4XqfEPKX5TirftQ-109" value="&lt;font face=&quot;Comic Sans MS&quot;&gt;15&lt;/font&gt;" style="ellipse;whiteSpace=wrap;html=1;fillColor=#f8cecc;strokeColor=#b85450;shadow=1;" vertex="1" parent="1">
          <mxGeometry x="1430" y="760" width="40" height="40" as="geometry" />
        </mxCell>
        <mxCell id="oKhAJ4XqfEPKX5TirftQ-110" value="&lt;font face=&quot;Comic Sans MS&quot;&gt;7&lt;/font&gt;" style="ellipse;whiteSpace=wrap;html=1;shadow=1;fillColor=#f8cecc;strokeColor=#b85450;" vertex="1" parent="1">
          <mxGeometry x="1510" y="760" width="40" height="40" as="geometry" />
        </mxCell>
        <mxCell id="oKhAJ4XqfEPKX5TirftQ-111" value="&lt;font face=&quot;Comic Sans MS&quot;&gt;Result&lt;/font&gt;" style="text;html=1;strokeColor=none;fillColor=none;align=center;verticalAlign=middle;whiteSpace=wrap;rounded=0;shadow=0;dashed=1;sketch=0;" vertex="1" parent="1">
          <mxGeometry x="1610" y="810" width="90" height="30" as="geometry" />
        </mxCell>
        <mxCell id="oKhAJ4XqfEPKX5TirftQ-112" value="" style="rounded=0;whiteSpace=wrap;html=1;shadow=0;dashed=1;sketch=0;strokeColor=#666666;opacity=50;fillColor=#f5f5f5;fontColor=#333333;" vertex="1" parent="1">
          <mxGeometry x="1610" y="600" width="230" height="40" as="geometry" />
        </mxCell>
        <mxCell id="oKhAJ4XqfEPKX5TirftQ-113" value="3" style="ellipse;whiteSpace=wrap;html=1;fillColor=#f8cecc;strokeColor=#b85450;shadow=0;" vertex="1" parent="1">
          <mxGeometry x="1615" y="605" width="30" height="30" as="geometry" />
        </mxCell>
        <mxCell id="oKhAJ4XqfEPKX5TirftQ-114" value="" style="line;strokeWidth=2;direction=south;html=1;perimeter=backbonePerimeter;points=[];outlineConnect=0;shadow=0;sketch=0;opacity=50;" vertex="1" parent="1">
          <mxGeometry x="1642.5" y="590" width="15" height="60" as="geometry" />
        </mxCell>
        <mxCell id="oKhAJ4XqfEPKX5TirftQ-115" value="&lt;font face=&quot;Comic Sans MS&quot;&gt;Queue&lt;/font&gt;" style="text;html=1;strokeColor=none;fillColor=none;align=center;verticalAlign=middle;whiteSpace=wrap;rounded=0;shadow=0;sketch=0;opacity=50;" vertex="1" parent="1">
          <mxGeometry x="1610" y="560" width="40" height="40" as="geometry" />
        </mxCell>
        <mxCell id="oKhAJ4XqfEPKX5TirftQ-116" value="&lt;font face=&quot;Comic Sans MS&quot;&gt;第1层&lt;/font&gt;" style="text;html=1;strokeColor=none;fillColor=none;align=center;verticalAlign=middle;whiteSpace=wrap;rounded=0;shadow=0;sketch=0;opacity=50;" vertex="1" parent="1">
          <mxGeometry x="1610" y="640" width="40" height="30" as="geometry" />
        </mxCell>
        <mxCell id="oKhAJ4XqfEPKX5TirftQ-117" value="迭代:1-2" style="rounded=0;whiteSpace=wrap;html=1;shadow=0;sketch=0;fontFamily=Comic Sans MS;strokeColor=default;strokeWidth=1;opacity=0;" vertex="1" parent="1">
          <mxGeometry x="1550" y="520" width="80" height="30" as="geometry" />
        </mxCell>
        <mxCell id="oKhAJ4XqfEPKX5TirftQ-118" value="9" style="ellipse;whiteSpace=wrap;html=1;fillColor=#f8cecc;strokeColor=#b85450;shadow=0;" vertex="1" parent="1">
          <mxGeometry x="1660" y="605" width="30" height="30" as="geometry" />
        </mxCell>
        <mxCell id="oKhAJ4XqfEPKX5TirftQ-119" value="20" style="ellipse;whiteSpace=wrap;html=1;fillColor=#f8cecc;strokeColor=#b85450;shadow=0;" vertex="1" parent="1">
          <mxGeometry x="1700" y="605" width="30" height="30" as="geometry" />
        </mxCell>
        <mxCell id="oKhAJ4XqfEPKX5TirftQ-121" value="&lt;font face=&quot;Comic Sans MS&quot;&gt;第2层&lt;/font&gt;" style="text;html=1;strokeColor=none;fillColor=none;align=center;verticalAlign=middle;whiteSpace=wrap;rounded=0;shadow=0;sketch=0;opacity=50;" vertex="1" parent="1">
          <mxGeometry x="1650" y="640" width="90" height="30" as="geometry" />
        </mxCell>
        <mxCell id="oKhAJ4XqfEPKX5TirftQ-122" value="&lt;font face=&quot;Comic Sans MS&quot;&gt;第1层&lt;/font&gt;" style="text;html=1;strokeColor=none;fillColor=none;align=center;verticalAlign=middle;whiteSpace=wrap;rounded=0;shadow=0;sketch=0;opacity=50;" vertex="1" parent="1">
          <mxGeometry x="1290" y="605" width="40" height="30" as="geometry" />
        </mxCell>
        <mxCell id="oKhAJ4XqfEPKX5TirftQ-123" value="&lt;font face=&quot;Comic Sans MS&quot;&gt;第2层&lt;/font&gt;" style="text;html=1;strokeColor=none;fillColor=none;align=center;verticalAlign=middle;whiteSpace=wrap;rounded=0;shadow=0;sketch=0;opacity=50;" vertex="1" parent="1">
          <mxGeometry x="1290" y="682.5" width="40" height="35" as="geometry" />
        </mxCell>
        <mxCell id="oKhAJ4XqfEPKX5TirftQ-124" value="&lt;font face=&quot;Comic Sans MS&quot;&gt;第3层&lt;/font&gt;" style="text;html=1;strokeColor=none;fillColor=none;align=center;verticalAlign=middle;whiteSpace=wrap;rounded=0;shadow=0;sketch=0;opacity=50;" vertex="1" parent="1">
          <mxGeometry x="1290" y="762.5" width="40" height="35" as="geometry" />
        </mxCell>
        <mxCell id="oKhAJ4XqfEPKX5TirftQ-131" value="" style="rounded=0;whiteSpace=wrap;html=1;shadow=0;dashed=1;sketch=0;strokeColor=#666666;opacity=50;fillColor=#f5f5f5;fontColor=#333333;" vertex="1" parent="1">
          <mxGeometry x="2200" y="310" width="90" height="130" as="geometry" />
        </mxCell>
        <mxCell id="oKhAJ4XqfEPKX5TirftQ-132" value="" style="rounded=0;whiteSpace=wrap;html=1;shadow=0;sketch=0;fillColor=#dae8fc;strokeColor=#6c8ebf;opacity=50;dashed=1;" vertex="1" parent="1">
          <mxGeometry x="1920" y="380" width="240" height="60" as="geometry" />
        </mxCell>
        <mxCell id="oKhAJ4XqfEPKX5TirftQ-133" value="" style="rounded=0;whiteSpace=wrap;html=1;shadow=0;sketch=0;fillColor=#dae8fc;strokeColor=#6c8ebf;opacity=50;dashed=1;" vertex="1" parent="1">
          <mxGeometry x="1920" y="300" width="240" height="60" as="geometry" />
        </mxCell>
        <mxCell id="oKhAJ4XqfEPKX5TirftQ-134" value="" style="rounded=0;whiteSpace=wrap;html=1;shadow=0;sketch=0;fillColor=#dae8fc;strokeColor=#6c8ebf;opacity=50;dashed=1;" vertex="1" parent="1">
          <mxGeometry x="1920" y="220" width="240" height="60" as="geometry" />
        </mxCell>
        <mxCell id="oKhAJ4XqfEPKX5TirftQ-135" style="rounded=0;orthogonalLoop=1;jettySize=auto;html=1;exitX=0;exitY=1;exitDx=0;exitDy=0;entryX=0.5;entryY=0;entryDx=0;entryDy=0;endArrow=none;endFill=0;sketch=0;" edge="1" parent="1" source="oKhAJ4XqfEPKX5TirftQ-137" target="oKhAJ4XqfEPKX5TirftQ-138">
          <mxGeometry relative="1" as="geometry" />
        </mxCell>
        <mxCell id="oKhAJ4XqfEPKX5TirftQ-136" style="edgeStyle=none;rounded=0;orthogonalLoop=1;jettySize=auto;html=1;exitX=1;exitY=1;exitDx=0;exitDy=0;entryX=0.5;entryY=0;entryDx=0;entryDy=0;endArrow=none;endFill=0;sketch=0;" edge="1" parent="1" source="oKhAJ4XqfEPKX5TirftQ-137" target="oKhAJ4XqfEPKX5TirftQ-141">
          <mxGeometry relative="1" as="geometry" />
        </mxCell>
        <mxCell id="oKhAJ4XqfEPKX5TirftQ-137" value="&lt;font face=&quot;Comic Sans MS&quot;&gt;3&lt;/font&gt;" style="ellipse;whiteSpace=wrap;html=1;fillColor=#f5f5f5;strokeColor=#666666;shadow=1;fontColor=#333333;sketch=0;" vertex="1" parent="1">
          <mxGeometry x="2020" y="230" width="40" height="40" as="geometry" />
        </mxCell>
        <mxCell id="oKhAJ4XqfEPKX5TirftQ-138" value="&lt;font face=&quot;Comic Sans MS&quot;&gt;9&lt;/font&gt;" style="ellipse;whiteSpace=wrap;html=1;fillColor=#f8cecc;strokeColor=#b85450;shadow=1;sketch=0;" vertex="1" parent="1">
          <mxGeometry x="1980" y="310" width="40" height="40" as="geometry" />
        </mxCell>
        <mxCell id="oKhAJ4XqfEPKX5TirftQ-139" style="edgeStyle=none;rounded=0;orthogonalLoop=1;jettySize=auto;html=1;exitX=0;exitY=1;exitDx=0;exitDy=0;entryX=0.5;entryY=0;entryDx=0;entryDy=0;endArrow=none;endFill=0;sketch=0;" edge="1" parent="1" source="oKhAJ4XqfEPKX5TirftQ-141" target="oKhAJ4XqfEPKX5TirftQ-142">
          <mxGeometry relative="1" as="geometry" />
        </mxCell>
        <mxCell id="oKhAJ4XqfEPKX5TirftQ-140" style="edgeStyle=none;rounded=0;orthogonalLoop=1;jettySize=auto;html=1;exitX=1;exitY=1;exitDx=0;exitDy=0;entryX=0.5;entryY=0;entryDx=0;entryDy=0;endArrow=none;endFill=0;sketch=0;" edge="1" parent="1" source="oKhAJ4XqfEPKX5TirftQ-141" target="oKhAJ4XqfEPKX5TirftQ-143">
          <mxGeometry relative="1" as="geometry" />
        </mxCell>
        <mxCell id="oKhAJ4XqfEPKX5TirftQ-141" value="&lt;font face=&quot;Comic Sans MS&quot;&gt;20&lt;/font&gt;" style="ellipse;whiteSpace=wrap;html=1;fillColor=#f8cecc;strokeColor=#b85450;shadow=1;sketch=0;" vertex="1" parent="1">
          <mxGeometry x="2060" y="310" width="40" height="40" as="geometry" />
        </mxCell>
        <mxCell id="oKhAJ4XqfEPKX5TirftQ-142" value="&lt;font face=&quot;Comic Sans MS&quot;&gt;15&lt;/font&gt;" style="ellipse;whiteSpace=wrap;html=1;fillColor=#f8cecc;strokeColor=#b85450;shadow=1;sketch=0;" vertex="1" parent="1">
          <mxGeometry x="2020" y="390" width="40" height="40" as="geometry" />
        </mxCell>
        <mxCell id="oKhAJ4XqfEPKX5TirftQ-143" value="&lt;font face=&quot;Comic Sans MS&quot;&gt;7&lt;/font&gt;" style="ellipse;whiteSpace=wrap;html=1;shadow=1;fillColor=#f8cecc;strokeColor=#b85450;sketch=0;" vertex="1" parent="1">
          <mxGeometry x="2100" y="390" width="40" height="40" as="geometry" />
        </mxCell>
        <mxCell id="oKhAJ4XqfEPKX5TirftQ-144" value="&lt;font face=&quot;Comic Sans MS&quot;&gt;Result&lt;/font&gt;" style="text;html=1;strokeColor=none;fillColor=none;align=center;verticalAlign=middle;whiteSpace=wrap;rounded=0;shadow=0;dashed=1;sketch=0;" vertex="1" parent="1">
          <mxGeometry x="2200" y="440" width="90" height="30" as="geometry" />
        </mxCell>
        <mxCell id="oKhAJ4XqfEPKX5TirftQ-145" value="" style="rounded=0;whiteSpace=wrap;html=1;shadow=0;dashed=1;sketch=0;strokeColor=#666666;opacity=50;fillColor=#f5f5f5;fontColor=#333333;" vertex="1" parent="1">
          <mxGeometry x="2200" y="230" width="230" height="40" as="geometry" />
        </mxCell>
        <mxCell id="oKhAJ4XqfEPKX5TirftQ-146" value="3" style="ellipse;whiteSpace=wrap;html=1;fillColor=#f8cecc;strokeColor=#b85450;shadow=0;" vertex="1" parent="1">
          <mxGeometry x="2205" y="235" width="30" height="30" as="geometry" />
        </mxCell>
        <mxCell id="oKhAJ4XqfEPKX5TirftQ-147" value="" style="line;strokeWidth=2;direction=south;html=1;perimeter=backbonePerimeter;points=[];outlineConnect=0;shadow=0;sketch=0;opacity=50;" vertex="1" parent="1">
          <mxGeometry x="2232.5" y="220" width="15" height="60" as="geometry" />
        </mxCell>
        <mxCell id="oKhAJ4XqfEPKX5TirftQ-148" value="&lt;font face=&quot;Comic Sans MS&quot;&gt;Queue&lt;/font&gt;" style="text;html=1;strokeColor=none;fillColor=none;align=center;verticalAlign=middle;whiteSpace=wrap;rounded=0;shadow=0;sketch=0;opacity=50;" vertex="1" parent="1">
          <mxGeometry x="2200" y="190" width="40" height="40" as="geometry" />
        </mxCell>
        <mxCell id="oKhAJ4XqfEPKX5TirftQ-149" value="&lt;font face=&quot;Comic Sans MS&quot;&gt;第1层&lt;/font&gt;" style="text;html=1;strokeColor=none;fillColor=none;align=center;verticalAlign=middle;whiteSpace=wrap;rounded=0;shadow=0;sketch=0;opacity=50;" vertex="1" parent="1">
          <mxGeometry x="2200" y="270" width="40" height="30" as="geometry" />
        </mxCell>
        <mxCell id="oKhAJ4XqfEPKX5TirftQ-150" value="迭代:初始状态" style="rounded=0;whiteSpace=wrap;html=1;shadow=0;sketch=0;fontFamily=Comic Sans MS;strokeColor=default;strokeWidth=1;opacity=0;" vertex="1" parent="1">
          <mxGeometry x="2140" y="150" width="80" height="30" as="geometry" />
        </mxCell>
        <mxCell id="oKhAJ4XqfEPKX5TirftQ-153" value="&lt;font face=&quot;Comic Sans MS&quot;&gt;第2层&lt;/font&gt;" style="text;html=1;strokeColor=none;fillColor=none;align=center;verticalAlign=middle;whiteSpace=wrap;rounded=0;shadow=0;sketch=0;opacity=50;" vertex="1" parent="1">
          <mxGeometry x="2240" y="270" width="90" height="30" as="geometry" />
        </mxCell>
        <mxCell id="oKhAJ4XqfEPKX5TirftQ-154" value="&lt;font face=&quot;Comic Sans MS&quot;&gt;第1层&lt;/font&gt;" style="text;html=1;strokeColor=none;fillColor=none;align=center;verticalAlign=middle;whiteSpace=wrap;rounded=0;shadow=0;sketch=0;opacity=50;" vertex="1" parent="1">
          <mxGeometry x="1880" y="235" width="40" height="30" as="geometry" />
        </mxCell>
        <mxCell id="oKhAJ4XqfEPKX5TirftQ-155" value="&lt;font face=&quot;Comic Sans MS&quot;&gt;第2层&lt;/font&gt;" style="text;html=1;strokeColor=none;fillColor=none;align=center;verticalAlign=middle;whiteSpace=wrap;rounded=0;shadow=0;sketch=0;opacity=50;" vertex="1" parent="1">
          <mxGeometry x="1880" y="312.5" width="40" height="35" as="geometry" />
        </mxCell>
        <mxCell id="oKhAJ4XqfEPKX5TirftQ-156" value="&lt;font face=&quot;Comic Sans MS&quot;&gt;第3层&lt;/font&gt;" style="text;html=1;strokeColor=none;fillColor=none;align=center;verticalAlign=middle;whiteSpace=wrap;rounded=0;shadow=0;sketch=0;opacity=50;" vertex="1" parent="1">
          <mxGeometry x="1880" y="392.5" width="40" height="35" as="geometry" />
        </mxCell>
        <mxCell id="oKhAJ4XqfEPKX5TirftQ-160" value="" style="rounded=0;whiteSpace=wrap;html=1;shadow=0;dashed=1;sketch=0;strokeColor=#666666;opacity=50;fillColor=#f5f5f5;fontColor=#333333;" vertex="1" parent="1">
          <mxGeometry x="1610" y="310" width="90" height="130" as="geometry" />
        </mxCell>
        <mxCell id="oKhAJ4XqfEPKX5TirftQ-161" value="" style="rounded=0;whiteSpace=wrap;html=1;shadow=0;sketch=0;fillColor=#dae8fc;strokeColor=#6c8ebf;opacity=50;dashed=1;" vertex="1" parent="1">
          <mxGeometry x="1330" y="380" width="240" height="60" as="geometry" />
        </mxCell>
        <mxCell id="oKhAJ4XqfEPKX5TirftQ-162" value="" style="rounded=0;whiteSpace=wrap;html=1;shadow=0;sketch=0;fillColor=#dae8fc;strokeColor=#6c8ebf;opacity=50;dashed=1;" vertex="1" parent="1">
          <mxGeometry x="1330" y="300" width="240" height="60" as="geometry" />
        </mxCell>
        <mxCell id="oKhAJ4XqfEPKX5TirftQ-163" value="" style="rounded=0;whiteSpace=wrap;html=1;shadow=0;sketch=0;fillColor=#ffcd28;strokeColor=#d79b00;opacity=50;dashed=1;gradientColor=#ffa500;" vertex="1" parent="1">
          <mxGeometry x="1330" y="220" width="240" height="60" as="geometry" />
        </mxCell>
        <mxCell id="oKhAJ4XqfEPKX5TirftQ-164" style="rounded=0;orthogonalLoop=1;jettySize=auto;html=1;exitX=0;exitY=1;exitDx=0;exitDy=0;entryX=0.5;entryY=0;entryDx=0;entryDy=0;endArrow=none;endFill=0;sketch=0;" edge="1" parent="1" source="oKhAJ4XqfEPKX5TirftQ-166" target="oKhAJ4XqfEPKX5TirftQ-167">
          <mxGeometry relative="1" as="geometry" />
        </mxCell>
        <mxCell id="oKhAJ4XqfEPKX5TirftQ-165" style="edgeStyle=none;rounded=0;orthogonalLoop=1;jettySize=auto;html=1;exitX=1;exitY=1;exitDx=0;exitDy=0;entryX=0.5;entryY=0;entryDx=0;entryDy=0;endArrow=none;endFill=0;sketch=0;" edge="1" parent="1" source="oKhAJ4XqfEPKX5TirftQ-166" target="oKhAJ4XqfEPKX5TirftQ-170">
          <mxGeometry relative="1" as="geometry" />
        </mxCell>
        <mxCell id="oKhAJ4XqfEPKX5TirftQ-166" value="&lt;font face=&quot;Comic Sans MS&quot;&gt;3&lt;/font&gt;" style="ellipse;whiteSpace=wrap;html=1;fillColor=#f5f5f5;strokeColor=#666666;shadow=1;fontColor=#333333;sketch=0;" vertex="1" parent="1">
          <mxGeometry x="1430" y="230" width="40" height="40" as="geometry" />
        </mxCell>
        <mxCell id="oKhAJ4XqfEPKX5TirftQ-167" value="&lt;font face=&quot;Comic Sans MS&quot;&gt;9&lt;/font&gt;" style="ellipse;whiteSpace=wrap;html=1;fillColor=#f5f5f5;strokeColor=#666666;shadow=1;fontColor=#333333;sketch=0;" vertex="1" parent="1">
          <mxGeometry x="1390" y="310" width="40" height="40" as="geometry" />
        </mxCell>
        <mxCell id="oKhAJ4XqfEPKX5TirftQ-168" style="edgeStyle=none;rounded=0;orthogonalLoop=1;jettySize=auto;html=1;exitX=0;exitY=1;exitDx=0;exitDy=0;entryX=0.5;entryY=0;entryDx=0;entryDy=0;endArrow=none;endFill=0;sketch=0;" edge="1" parent="1" source="oKhAJ4XqfEPKX5TirftQ-170" target="oKhAJ4XqfEPKX5TirftQ-171">
          <mxGeometry relative="1" as="geometry" />
        </mxCell>
        <mxCell id="oKhAJ4XqfEPKX5TirftQ-169" style="edgeStyle=none;rounded=0;orthogonalLoop=1;jettySize=auto;html=1;exitX=1;exitY=1;exitDx=0;exitDy=0;entryX=0.5;entryY=0;entryDx=0;entryDy=0;endArrow=none;endFill=0;sketch=0;" edge="1" parent="1" source="oKhAJ4XqfEPKX5TirftQ-170" target="oKhAJ4XqfEPKX5TirftQ-172">
          <mxGeometry relative="1" as="geometry" />
        </mxCell>
        <mxCell id="oKhAJ4XqfEPKX5TirftQ-170" value="&lt;font face=&quot;Comic Sans MS&quot;&gt;20&lt;/font&gt;" style="ellipse;whiteSpace=wrap;html=1;fillColor=#f8cecc;strokeColor=#b85450;shadow=1;sketch=0;" vertex="1" parent="1">
          <mxGeometry x="1470" y="310" width="40" height="40" as="geometry" />
        </mxCell>
        <mxCell id="oKhAJ4XqfEPKX5TirftQ-171" value="&lt;font face=&quot;Comic Sans MS&quot;&gt;15&lt;/font&gt;" style="ellipse;whiteSpace=wrap;html=1;fillColor=#f8cecc;strokeColor=#b85450;shadow=1;sketch=0;" vertex="1" parent="1">
          <mxGeometry x="1430" y="390" width="40" height="40" as="geometry" />
        </mxCell>
        <mxCell id="oKhAJ4XqfEPKX5TirftQ-172" value="&lt;font face=&quot;Comic Sans MS&quot;&gt;7&lt;/font&gt;" style="ellipse;whiteSpace=wrap;html=1;shadow=1;fillColor=#f8cecc;strokeColor=#b85450;sketch=0;" vertex="1" parent="1">
          <mxGeometry x="1510" y="390" width="40" height="40" as="geometry" />
        </mxCell>
        <mxCell id="oKhAJ4XqfEPKX5TirftQ-173" value="&lt;font face=&quot;Comic Sans MS&quot;&gt;Result&lt;/font&gt;" style="text;html=1;strokeColor=none;fillColor=none;align=center;verticalAlign=middle;whiteSpace=wrap;rounded=0;shadow=0;dashed=1;sketch=0;" vertex="1" parent="1">
          <mxGeometry x="1610" y="440" width="90" height="30" as="geometry" />
        </mxCell>
        <mxCell id="oKhAJ4XqfEPKX5TirftQ-174" value="" style="rounded=0;whiteSpace=wrap;html=1;shadow=0;dashed=1;sketch=0;strokeColor=#666666;opacity=50;fillColor=#f5f5f5;fontColor=#333333;" vertex="1" parent="1">
          <mxGeometry x="1610" y="230" width="230" height="40" as="geometry" />
        </mxCell>
        <mxCell id="oKhAJ4XqfEPKX5TirftQ-175" value="3" style="ellipse;whiteSpace=wrap;html=1;fillColor=#f8cecc;strokeColor=#b85450;shadow=0;sketch=0;" vertex="1" parent="1">
          <mxGeometry x="1615" y="235" width="30" height="30" as="geometry" />
        </mxCell>
        <mxCell id="oKhAJ4XqfEPKX5TirftQ-176" value="" style="line;strokeWidth=2;direction=south;html=1;perimeter=backbonePerimeter;points=[];outlineConnect=0;shadow=0;sketch=0;opacity=50;" vertex="1" parent="1">
          <mxGeometry x="1642.5" y="220" width="15" height="60" as="geometry" />
        </mxCell>
        <mxCell id="oKhAJ4XqfEPKX5TirftQ-177" value="&lt;font face=&quot;Comic Sans MS&quot;&gt;Queue&lt;/font&gt;" style="text;html=1;strokeColor=none;fillColor=none;align=center;verticalAlign=middle;whiteSpace=wrap;rounded=0;shadow=0;sketch=0;opacity=50;" vertex="1" parent="1">
          <mxGeometry x="1610" y="190" width="40" height="40" as="geometry" />
        </mxCell>
        <mxCell id="oKhAJ4XqfEPKX5TirftQ-178" value="&lt;font face=&quot;Comic Sans MS&quot;&gt;第1层&lt;/font&gt;" style="text;html=1;strokeColor=none;fillColor=none;align=center;verticalAlign=middle;whiteSpace=wrap;rounded=0;shadow=0;sketch=0;opacity=50;" vertex="1" parent="1">
          <mxGeometry x="1610" y="270" width="40" height="30" as="geometry" />
        </mxCell>
        <mxCell id="oKhAJ4XqfEPKX5TirftQ-179" value="迭代:1-1" style="rounded=0;whiteSpace=wrap;html=1;shadow=0;sketch=0;fontFamily=Comic Sans MS;strokeColor=default;strokeWidth=1;opacity=0;" vertex="1" parent="1">
          <mxGeometry x="1550" y="150" width="80" height="30" as="geometry" />
        </mxCell>
        <mxCell id="oKhAJ4XqfEPKX5TirftQ-180" value="9" style="ellipse;whiteSpace=wrap;html=1;fillColor=#f8cecc;strokeColor=#b85450;shadow=0;sketch=0;" vertex="1" parent="1">
          <mxGeometry x="1660" y="235" width="30" height="30" as="geometry" />
        </mxCell>
        <mxCell id="oKhAJ4XqfEPKX5TirftQ-182" value="&lt;font face=&quot;Comic Sans MS&quot;&gt;第2层&lt;/font&gt;" style="text;html=1;strokeColor=none;fillColor=none;align=center;verticalAlign=middle;whiteSpace=wrap;rounded=0;shadow=0;sketch=0;opacity=50;" vertex="1" parent="1">
          <mxGeometry x="1650" y="270" width="90" height="30" as="geometry" />
        </mxCell>
        <mxCell id="oKhAJ4XqfEPKX5TirftQ-183" value="&lt;font face=&quot;Comic Sans MS&quot;&gt;第1层&lt;/font&gt;" style="text;html=1;strokeColor=none;fillColor=none;align=center;verticalAlign=middle;whiteSpace=wrap;rounded=0;shadow=0;sketch=0;opacity=50;" vertex="1" parent="1">
          <mxGeometry x="1290" y="235" width="40" height="30" as="geometry" />
        </mxCell>
        <mxCell id="oKhAJ4XqfEPKX5TirftQ-184" value="&lt;font face=&quot;Comic Sans MS&quot;&gt;第2层&lt;/font&gt;" style="text;html=1;strokeColor=none;fillColor=none;align=center;verticalAlign=middle;whiteSpace=wrap;rounded=0;shadow=0;sketch=0;opacity=50;" vertex="1" parent="1">
          <mxGeometry x="1290" y="312.5" width="40" height="35" as="geometry" />
        </mxCell>
        <mxCell id="oKhAJ4XqfEPKX5TirftQ-185" value="&lt;font face=&quot;Comic Sans MS&quot;&gt;第3层&lt;/font&gt;" style="text;html=1;strokeColor=none;fillColor=none;align=center;verticalAlign=middle;whiteSpace=wrap;rounded=0;shadow=0;sketch=0;opacity=50;" vertex="1" parent="1">
          <mxGeometry x="1290" y="392.5" width="40" height="35" as="geometry" />
        </mxCell>
        <mxCell id="oKhAJ4XqfEPKX5TirftQ-213" value="" style="rounded=0;whiteSpace=wrap;html=1;shadow=0;dashed=1;sketch=0;strokeColor=#666666;opacity=50;fillColor=#f5f5f5;fontColor=#333333;" vertex="1" parent="1">
          <mxGeometry x="1610" y="1120" width="90" height="130" as="geometry" />
        </mxCell>
        <mxCell id="oKhAJ4XqfEPKX5TirftQ-214" value="" style="rounded=0;whiteSpace=wrap;html=1;shadow=0;sketch=0;fillColor=#dae8fc;strokeColor=#6c8ebf;opacity=50;dashed=1;" vertex="1" parent="1">
          <mxGeometry x="1330" y="1190" width="240" height="60" as="geometry" />
        </mxCell>
        <mxCell id="oKhAJ4XqfEPKX5TirftQ-215" value="" style="rounded=0;whiteSpace=wrap;html=1;shadow=0;sketch=0;fillColor=#dae8fc;strokeColor=#6c8ebf;opacity=50;dashed=1;" vertex="1" parent="1">
          <mxGeometry x="1330" y="1110" width="240" height="60" as="geometry" />
        </mxCell>
        <mxCell id="oKhAJ4XqfEPKX5TirftQ-216" value="" style="rounded=0;whiteSpace=wrap;html=1;shadow=0;sketch=0;fillColor=#ffcd28;strokeColor=#d79b00;opacity=50;dashed=1;gradientColor=#ffa500;" vertex="1" parent="1">
          <mxGeometry x="1330" y="1030" width="240" height="60" as="geometry" />
        </mxCell>
        <mxCell id="oKhAJ4XqfEPKX5TirftQ-217" style="rounded=0;orthogonalLoop=1;jettySize=auto;html=1;exitX=0;exitY=1;exitDx=0;exitDy=0;entryX=0.5;entryY=0;entryDx=0;entryDy=0;endArrow=none;endFill=0;sketch=0;" edge="1" parent="1" source="oKhAJ4XqfEPKX5TirftQ-219" target="oKhAJ4XqfEPKX5TirftQ-220">
          <mxGeometry relative="1" as="geometry" />
        </mxCell>
        <mxCell id="oKhAJ4XqfEPKX5TirftQ-218" style="edgeStyle=none;rounded=0;orthogonalLoop=1;jettySize=auto;html=1;exitX=1;exitY=1;exitDx=0;exitDy=0;entryX=0.5;entryY=0;entryDx=0;entryDy=0;endArrow=none;endFill=0;sketch=0;" edge="1" parent="1" source="oKhAJ4XqfEPKX5TirftQ-219" target="oKhAJ4XqfEPKX5TirftQ-223">
          <mxGeometry relative="1" as="geometry" />
        </mxCell>
        <mxCell id="oKhAJ4XqfEPKX5TirftQ-219" value="&lt;font face=&quot;Comic Sans MS&quot;&gt;3&lt;/font&gt;" style="ellipse;whiteSpace=wrap;html=1;fillColor=#f5f5f5;strokeColor=#666666;shadow=1;fontColor=#333333;sketch=0;" vertex="1" parent="1">
          <mxGeometry x="1430" y="1040" width="40" height="40" as="geometry" />
        </mxCell>
        <mxCell id="oKhAJ4XqfEPKX5TirftQ-220" value="&lt;font face=&quot;Comic Sans MS&quot;&gt;9&lt;/font&gt;" style="ellipse;whiteSpace=wrap;html=1;fillColor=#f5f5f5;strokeColor=#666666;shadow=1;fontColor=#333333;sketch=0;" vertex="1" parent="1">
          <mxGeometry x="1390" y="1120" width="40" height="40" as="geometry" />
        </mxCell>
        <mxCell id="oKhAJ4XqfEPKX5TirftQ-221" style="edgeStyle=none;rounded=0;orthogonalLoop=1;jettySize=auto;html=1;exitX=0;exitY=1;exitDx=0;exitDy=0;entryX=0.5;entryY=0;entryDx=0;entryDy=0;endArrow=none;endFill=0;sketch=0;" edge="1" parent="1" source="oKhAJ4XqfEPKX5TirftQ-223" target="oKhAJ4XqfEPKX5TirftQ-224">
          <mxGeometry relative="1" as="geometry" />
        </mxCell>
        <mxCell id="oKhAJ4XqfEPKX5TirftQ-222" style="edgeStyle=none;rounded=0;orthogonalLoop=1;jettySize=auto;html=1;exitX=1;exitY=1;exitDx=0;exitDy=0;entryX=0.5;entryY=0;entryDx=0;entryDy=0;endArrow=none;endFill=0;sketch=0;" edge="1" parent="1" source="oKhAJ4XqfEPKX5TirftQ-223" target="oKhAJ4XqfEPKX5TirftQ-225">
          <mxGeometry relative="1" as="geometry" />
        </mxCell>
        <mxCell id="oKhAJ4XqfEPKX5TirftQ-223" value="&lt;font face=&quot;Comic Sans MS&quot;&gt;20&lt;/font&gt;" style="ellipse;whiteSpace=wrap;html=1;fillColor=#f5f5f5;strokeColor=#666666;shadow=1;fontColor=#333333;sketch=0;" vertex="1" parent="1">
          <mxGeometry x="1470" y="1120" width="40" height="40" as="geometry" />
        </mxCell>
        <mxCell id="oKhAJ4XqfEPKX5TirftQ-224" value="&lt;font face=&quot;Comic Sans MS&quot;&gt;15&lt;/font&gt;" style="ellipse;whiteSpace=wrap;html=1;fillColor=#f8cecc;strokeColor=#b85450;shadow=1;sketch=0;" vertex="1" parent="1">
          <mxGeometry x="1430" y="1200" width="40" height="40" as="geometry" />
        </mxCell>
        <mxCell id="oKhAJ4XqfEPKX5TirftQ-225" value="&lt;font face=&quot;Comic Sans MS&quot;&gt;7&lt;/font&gt;" style="ellipse;whiteSpace=wrap;html=1;shadow=1;fillColor=#f8cecc;strokeColor=#b85450;sketch=0;" vertex="1" parent="1">
          <mxGeometry x="1510" y="1200" width="40" height="40" as="geometry" />
        </mxCell>
        <mxCell id="oKhAJ4XqfEPKX5TirftQ-226" value="&lt;font face=&quot;Comic Sans MS&quot;&gt;Result&lt;/font&gt;" style="text;html=1;strokeColor=none;fillColor=none;align=center;verticalAlign=middle;whiteSpace=wrap;rounded=0;shadow=0;dashed=1;sketch=0;" vertex="1" parent="1">
          <mxGeometry x="1610" y="1250" width="90" height="30" as="geometry" />
        </mxCell>
        <mxCell id="oKhAJ4XqfEPKX5TirftQ-227" value="" style="rounded=0;whiteSpace=wrap;html=1;shadow=0;dashed=1;sketch=0;strokeColor=#666666;opacity=50;fillColor=#f5f5f5;fontColor=#333333;" vertex="1" parent="1">
          <mxGeometry x="1610" y="1040" width="230" height="40" as="geometry" />
        </mxCell>
        <mxCell id="oKhAJ4XqfEPKX5TirftQ-228" value="3" style="ellipse;whiteSpace=wrap;html=1;fillColor=#f5f5f5;strokeColor=#666666;shadow=0;fontColor=#333333;sketch=0;" vertex="1" parent="1">
          <mxGeometry x="1615" y="1045" width="30" height="30" as="geometry" />
        </mxCell>
        <mxCell id="oKhAJ4XqfEPKX5TirftQ-229" value="" style="line;strokeWidth=2;direction=south;html=1;perimeter=backbonePerimeter;points=[];outlineConnect=0;shadow=0;sketch=0;opacity=50;" vertex="1" parent="1">
          <mxGeometry x="1642.5" y="1030" width="15" height="60" as="geometry" />
        </mxCell>
        <mxCell id="oKhAJ4XqfEPKX5TirftQ-230" value="&lt;font face=&quot;Comic Sans MS&quot;&gt;Queue&lt;/font&gt;" style="text;html=1;strokeColor=none;fillColor=none;align=center;verticalAlign=middle;whiteSpace=wrap;rounded=0;shadow=0;sketch=0;opacity=50;" vertex="1" parent="1">
          <mxGeometry x="1610" y="1000" width="40" height="40" as="geometry" />
        </mxCell>
        <mxCell id="oKhAJ4XqfEPKX5TirftQ-231" value="&lt;font face=&quot;Comic Sans MS&quot;&gt;第1层&lt;/font&gt;" style="text;html=1;strokeColor=none;fillColor=none;align=center;verticalAlign=middle;whiteSpace=wrap;rounded=0;shadow=0;sketch=0;opacity=50;" vertex="1" parent="1">
          <mxGeometry x="1610" y="1080" width="40" height="30" as="geometry" />
        </mxCell>
        <mxCell id="oKhAJ4XqfEPKX5TirftQ-232" value="迭代:1-3" style="rounded=0;whiteSpace=wrap;html=1;shadow=0;sketch=0;fontFamily=Comic Sans MS;strokeColor=default;strokeWidth=1;opacity=0;" vertex="1" parent="1">
          <mxGeometry x="1550" y="960" width="80" height="30" as="geometry" />
        </mxCell>
        <mxCell id="oKhAJ4XqfEPKX5TirftQ-233" value="9" style="ellipse;whiteSpace=wrap;html=1;fillColor=#f8cecc;strokeColor=#b85450;shadow=0;sketch=0;" vertex="1" parent="1">
          <mxGeometry x="1660" y="1045" width="30" height="30" as="geometry" />
        </mxCell>
        <mxCell id="oKhAJ4XqfEPKX5TirftQ-234" value="20" style="ellipse;whiteSpace=wrap;html=1;fillColor=#f8cecc;strokeColor=#b85450;shadow=0;sketch=0;" vertex="1" parent="1">
          <mxGeometry x="1700" y="1045" width="30" height="30" as="geometry" />
        </mxCell>
        <mxCell id="oKhAJ4XqfEPKX5TirftQ-235" value="&lt;font face=&quot;Comic Sans MS&quot;&gt;第2层&lt;/font&gt;" style="text;html=1;strokeColor=none;fillColor=none;align=center;verticalAlign=middle;whiteSpace=wrap;rounded=0;shadow=0;sketch=0;opacity=50;" vertex="1" parent="1">
          <mxGeometry x="1650" y="1080" width="90" height="30" as="geometry" />
        </mxCell>
        <mxCell id="oKhAJ4XqfEPKX5TirftQ-236" value="&lt;font face=&quot;Comic Sans MS&quot;&gt;第1层&lt;/font&gt;" style="text;html=1;strokeColor=none;fillColor=none;align=center;verticalAlign=middle;whiteSpace=wrap;rounded=0;shadow=0;sketch=0;opacity=50;" vertex="1" parent="1">
          <mxGeometry x="1290" y="1045" width="40" height="30" as="geometry" />
        </mxCell>
        <mxCell id="oKhAJ4XqfEPKX5TirftQ-237" value="&lt;font face=&quot;Comic Sans MS&quot;&gt;第2层&lt;/font&gt;" style="text;html=1;strokeColor=none;fillColor=none;align=center;verticalAlign=middle;whiteSpace=wrap;rounded=0;shadow=0;sketch=0;opacity=50;" vertex="1" parent="1">
          <mxGeometry x="1290" y="1122.5" width="40" height="35" as="geometry" />
        </mxCell>
        <mxCell id="oKhAJ4XqfEPKX5TirftQ-238" value="&lt;font face=&quot;Comic Sans MS&quot;&gt;第3层&lt;/font&gt;" style="text;html=1;strokeColor=none;fillColor=none;align=center;verticalAlign=middle;whiteSpace=wrap;rounded=0;shadow=0;sketch=0;opacity=50;" vertex="1" parent="1">
          <mxGeometry x="1290" y="1202.5" width="40" height="35" as="geometry" />
        </mxCell>
        <mxCell id="oKhAJ4XqfEPKX5TirftQ-239" value="3" style="ellipse;whiteSpace=wrap;html=1;fillColor=#dae8fc;strokeColor=#6c8ebf;shadow=0;sketch=0;" vertex="1" parent="1">
          <mxGeometry x="1620" y="1130" width="30" height="30" as="geometry" />
        </mxCell>
        <mxCell id="oKhAJ4XqfEPKX5TirftQ-240" value="" style="rounded=0;whiteSpace=wrap;html=1;shadow=0;dashed=1;sketch=0;strokeColor=#666666;opacity=50;fillColor=#f5f5f5;fontColor=#333333;" vertex="1" parent="1">
          <mxGeometry x="1010" y="310" width="90" height="130" as="geometry" />
        </mxCell>
        <mxCell id="oKhAJ4XqfEPKX5TirftQ-241" value="" style="rounded=0;whiteSpace=wrap;html=1;shadow=0;sketch=0;fillColor=#dae8fc;strokeColor=#6c8ebf;opacity=50;dashed=1;" vertex="1" parent="1">
          <mxGeometry x="730" y="380" width="240" height="60" as="geometry" />
        </mxCell>
        <mxCell id="oKhAJ4XqfEPKX5TirftQ-242" value="" style="rounded=0;whiteSpace=wrap;html=1;shadow=0;sketch=0;fillColor=#ffcd28;strokeColor=#d79b00;opacity=50;dashed=1;gradientColor=#ffa500;" vertex="1" parent="1">
          <mxGeometry x="730" y="300" width="240" height="60" as="geometry" />
        </mxCell>
        <mxCell id="oKhAJ4XqfEPKX5TirftQ-243" value="" style="rounded=0;whiteSpace=wrap;html=1;shadow=0;sketch=0;fillColor=#dae8fc;strokeColor=#6c8ebf;opacity=50;dashed=1;" vertex="1" parent="1">
          <mxGeometry x="730" y="220" width="240" height="60" as="geometry" />
        </mxCell>
        <mxCell id="oKhAJ4XqfEPKX5TirftQ-244" style="rounded=0;orthogonalLoop=1;jettySize=auto;html=1;exitX=0;exitY=1;exitDx=0;exitDy=0;entryX=0.5;entryY=0;entryDx=0;entryDy=0;endArrow=none;endFill=0;sketch=0;" edge="1" parent="1" source="oKhAJ4XqfEPKX5TirftQ-246" target="oKhAJ4XqfEPKX5TirftQ-247">
          <mxGeometry relative="1" as="geometry" />
        </mxCell>
        <mxCell id="oKhAJ4XqfEPKX5TirftQ-245" style="edgeStyle=none;rounded=0;orthogonalLoop=1;jettySize=auto;html=1;exitX=1;exitY=1;exitDx=0;exitDy=0;entryX=0.5;entryY=0;entryDx=0;entryDy=0;endArrow=none;endFill=0;sketch=0;" edge="1" parent="1" source="oKhAJ4XqfEPKX5TirftQ-246" target="oKhAJ4XqfEPKX5TirftQ-250">
          <mxGeometry relative="1" as="geometry" />
        </mxCell>
        <mxCell id="oKhAJ4XqfEPKX5TirftQ-246" value="&lt;font face=&quot;Comic Sans MS&quot;&gt;3&lt;/font&gt;" style="ellipse;whiteSpace=wrap;html=1;fillColor=#f5f5f5;strokeColor=#666666;shadow=1;fontColor=#333333;sketch=0;" vertex="1" parent="1">
          <mxGeometry x="830" y="230" width="40" height="40" as="geometry" />
        </mxCell>
        <mxCell id="oKhAJ4XqfEPKX5TirftQ-247" value="&lt;font face=&quot;Comic Sans MS&quot;&gt;9&lt;/font&gt;" style="ellipse;whiteSpace=wrap;html=1;fillColor=#f5f5f5;strokeColor=#666666;shadow=1;fontColor=#333333;sketch=0;" vertex="1" parent="1">
          <mxGeometry x="790" y="310" width="40" height="40" as="geometry" />
        </mxCell>
        <mxCell id="oKhAJ4XqfEPKX5TirftQ-248" style="edgeStyle=none;rounded=0;orthogonalLoop=1;jettySize=auto;html=1;exitX=0;exitY=1;exitDx=0;exitDy=0;entryX=0.5;entryY=0;entryDx=0;entryDy=0;endArrow=none;endFill=0;sketch=0;" edge="1" parent="1" source="oKhAJ4XqfEPKX5TirftQ-250" target="oKhAJ4XqfEPKX5TirftQ-251">
          <mxGeometry relative="1" as="geometry" />
        </mxCell>
        <mxCell id="oKhAJ4XqfEPKX5TirftQ-249" style="edgeStyle=none;rounded=0;orthogonalLoop=1;jettySize=auto;html=1;exitX=1;exitY=1;exitDx=0;exitDy=0;entryX=0.5;entryY=0;entryDx=0;entryDy=0;endArrow=none;endFill=0;sketch=0;" edge="1" parent="1" source="oKhAJ4XqfEPKX5TirftQ-250" target="oKhAJ4XqfEPKX5TirftQ-252">
          <mxGeometry relative="1" as="geometry" />
        </mxCell>
        <mxCell id="oKhAJ4XqfEPKX5TirftQ-250" value="&lt;font face=&quot;Comic Sans MS&quot;&gt;20&lt;/font&gt;" style="ellipse;whiteSpace=wrap;html=1;fillColor=#f5f5f5;strokeColor=#666666;shadow=1;fontColor=#333333;sketch=0;" vertex="1" parent="1">
          <mxGeometry x="870" y="310" width="40" height="40" as="geometry" />
        </mxCell>
        <mxCell id="oKhAJ4XqfEPKX5TirftQ-251" value="&lt;font face=&quot;Comic Sans MS&quot;&gt;15&lt;/font&gt;" style="ellipse;whiteSpace=wrap;html=1;fillColor=#f8cecc;strokeColor=#b85450;shadow=1;sketch=0;" vertex="1" parent="1">
          <mxGeometry x="830" y="390" width="40" height="40" as="geometry" />
        </mxCell>
        <mxCell id="oKhAJ4XqfEPKX5TirftQ-252" value="&lt;font face=&quot;Comic Sans MS&quot;&gt;7&lt;/font&gt;" style="ellipse;whiteSpace=wrap;html=1;shadow=1;fillColor=#f8cecc;strokeColor=#b85450;sketch=0;" vertex="1" parent="1">
          <mxGeometry x="910" y="390" width="40" height="40" as="geometry" />
        </mxCell>
        <mxCell id="oKhAJ4XqfEPKX5TirftQ-253" value="&lt;font face=&quot;Comic Sans MS&quot;&gt;Result&lt;/font&gt;" style="text;html=1;strokeColor=none;fillColor=none;align=center;verticalAlign=middle;whiteSpace=wrap;rounded=0;shadow=0;dashed=1;sketch=0;" vertex="1" parent="1">
          <mxGeometry x="1010" y="440" width="90" height="30" as="geometry" />
        </mxCell>
        <mxCell id="oKhAJ4XqfEPKX5TirftQ-254" value="" style="rounded=0;whiteSpace=wrap;html=1;shadow=0;dashed=1;sketch=0;strokeColor=#666666;opacity=50;fillColor=#f5f5f5;fontColor=#333333;" vertex="1" parent="1">
          <mxGeometry x="1010" y="230" width="230" height="40" as="geometry" />
        </mxCell>
        <mxCell id="oKhAJ4XqfEPKX5TirftQ-255" value="3" style="ellipse;whiteSpace=wrap;html=1;fillColor=#f5f5f5;strokeColor=#666666;shadow=0;fontColor=#333333;sketch=0;" vertex="1" parent="1">
          <mxGeometry x="1020" y="235" width="30" height="30" as="geometry" />
        </mxCell>
        <mxCell id="oKhAJ4XqfEPKX5TirftQ-256" value="" style="line;strokeWidth=2;direction=south;html=1;perimeter=backbonePerimeter;points=[];outlineConnect=0;shadow=0;sketch=0;opacity=50;" vertex="1" parent="1">
          <mxGeometry x="1042.5" y="220" width="27.5" height="60" as="geometry" />
        </mxCell>
        <mxCell id="oKhAJ4XqfEPKX5TirftQ-257" value="&lt;font face=&quot;Comic Sans MS&quot;&gt;Queue&lt;/font&gt;" style="text;html=1;strokeColor=none;fillColor=none;align=center;verticalAlign=middle;whiteSpace=wrap;rounded=0;shadow=0;sketch=0;opacity=50;" vertex="1" parent="1">
          <mxGeometry x="1010" y="190" width="40" height="40" as="geometry" />
        </mxCell>
        <mxCell id="oKhAJ4XqfEPKX5TirftQ-258" value="&lt;font face=&quot;Comic Sans MS&quot;&gt;第1层&lt;/font&gt;" style="text;html=1;strokeColor=none;fillColor=none;align=center;verticalAlign=middle;whiteSpace=wrap;rounded=0;shadow=0;sketch=0;opacity=50;" vertex="1" parent="1">
          <mxGeometry x="1010" y="270" width="40" height="30" as="geometry" />
        </mxCell>
        <mxCell id="oKhAJ4XqfEPKX5TirftQ-259" value="迭代:2-1" style="rounded=0;whiteSpace=wrap;html=1;shadow=0;sketch=0;fontFamily=Comic Sans MS;strokeColor=default;strokeWidth=1;opacity=0;" vertex="1" parent="1">
          <mxGeometry x="950" y="150" width="80" height="30" as="geometry" />
        </mxCell>
        <mxCell id="oKhAJ4XqfEPKX5TirftQ-260" value="9" style="ellipse;whiteSpace=wrap;html=1;fillColor=#f5f5f5;strokeColor=#666666;shadow=0;fontColor=#333333;sketch=0;" vertex="1" parent="1">
          <mxGeometry x="1070" y="235" width="30" height="30" as="geometry" />
        </mxCell>
        <mxCell id="oKhAJ4XqfEPKX5TirftQ-261" value="20" style="ellipse;whiteSpace=wrap;html=1;fillColor=#f8cecc;strokeColor=#b85450;shadow=0;sketch=0;" vertex="1" parent="1">
          <mxGeometry x="1110" y="235" width="30" height="30" as="geometry" />
        </mxCell>
        <mxCell id="oKhAJ4XqfEPKX5TirftQ-263" value="&lt;font face=&quot;Comic Sans MS&quot;&gt;第2层&lt;/font&gt;" style="text;html=1;strokeColor=none;fillColor=none;align=center;verticalAlign=middle;whiteSpace=wrap;rounded=0;shadow=0;sketch=0;opacity=50;" vertex="1" parent="1">
          <mxGeometry x="1050" y="270" width="90" height="30" as="geometry" />
        </mxCell>
        <mxCell id="oKhAJ4XqfEPKX5TirftQ-264" value="&lt;font face=&quot;Comic Sans MS&quot;&gt;第1层&lt;/font&gt;" style="text;html=1;strokeColor=none;fillColor=none;align=center;verticalAlign=middle;whiteSpace=wrap;rounded=0;shadow=0;sketch=0;opacity=50;" vertex="1" parent="1">
          <mxGeometry x="690" y="235" width="40" height="30" as="geometry" />
        </mxCell>
        <mxCell id="oKhAJ4XqfEPKX5TirftQ-265" value="&lt;font face=&quot;Comic Sans MS&quot;&gt;第2层&lt;/font&gt;" style="text;html=1;strokeColor=none;fillColor=none;align=center;verticalAlign=middle;whiteSpace=wrap;rounded=0;shadow=0;sketch=0;opacity=50;" vertex="1" parent="1">
          <mxGeometry x="690" y="312.5" width="40" height="35" as="geometry" />
        </mxCell>
        <mxCell id="oKhAJ4XqfEPKX5TirftQ-266" value="&lt;font face=&quot;Comic Sans MS&quot;&gt;第3层&lt;/font&gt;" style="text;html=1;strokeColor=none;fillColor=none;align=center;verticalAlign=middle;whiteSpace=wrap;rounded=0;shadow=0;sketch=0;opacity=50;" vertex="1" parent="1">
          <mxGeometry x="690" y="392.5" width="40" height="35" as="geometry" />
        </mxCell>
        <mxCell id="oKhAJ4XqfEPKX5TirftQ-267" value="3" style="ellipse;whiteSpace=wrap;html=1;fillColor=#dae8fc;strokeColor=#6c8ebf;shadow=0;sketch=0;gradientColor=#7ea6e0;" vertex="1" parent="1">
          <mxGeometry x="1020" y="320" width="30" height="30" as="geometry" />
        </mxCell>
        <mxCell id="oKhAJ4XqfEPKX5TirftQ-271" value="&lt;font face=&quot;Comic Sans MS&quot;&gt;9&lt;/font&gt;" style="ellipse;whiteSpace=wrap;html=1;fillColor=#dae8fc;strokeColor=#6c8ebf;shadow=0;sketch=0;gradientColor=#7ea6e0;" vertex="1" parent="1">
          <mxGeometry x="1020" y="360" width="30" height="30" as="geometry" />
        </mxCell>
        <mxCell id="oKhAJ4XqfEPKX5TirftQ-304" value="" style="rounded=0;whiteSpace=wrap;html=1;shadow=0;dashed=1;sketch=0;strokeColor=#666666;opacity=50;fillColor=#f5f5f5;fontColor=#333333;" vertex="1" parent="1">
          <mxGeometry x="1011" y="1120" width="90" height="130" as="geometry" />
        </mxCell>
        <mxCell id="oKhAJ4XqfEPKX5TirftQ-305" value="" style="rounded=0;whiteSpace=wrap;html=1;shadow=0;sketch=0;fillColor=#dae8fc;strokeColor=#6c8ebf;opacity=50;dashed=1;" vertex="1" parent="1">
          <mxGeometry x="731" y="1190" width="240" height="60" as="geometry" />
        </mxCell>
        <mxCell id="oKhAJ4XqfEPKX5TirftQ-306" value="" style="rounded=0;whiteSpace=wrap;html=1;shadow=0;sketch=0;fillColor=#ffcd28;strokeColor=#d79b00;opacity=50;dashed=1;gradientColor=#ffa500;" vertex="1" parent="1">
          <mxGeometry x="731" y="1110" width="240" height="60" as="geometry" />
        </mxCell>
        <mxCell id="oKhAJ4XqfEPKX5TirftQ-307" value="" style="rounded=0;whiteSpace=wrap;html=1;shadow=0;sketch=0;fillColor=#dae8fc;strokeColor=#6c8ebf;opacity=50;dashed=1;" vertex="1" parent="1">
          <mxGeometry x="731" y="1030" width="240" height="60" as="geometry" />
        </mxCell>
        <mxCell id="oKhAJ4XqfEPKX5TirftQ-308" style="rounded=0;orthogonalLoop=1;jettySize=auto;html=1;exitX=0;exitY=1;exitDx=0;exitDy=0;entryX=0.5;entryY=0;entryDx=0;entryDy=0;endArrow=none;endFill=0;sketch=0;" edge="1" parent="1" source="oKhAJ4XqfEPKX5TirftQ-310" target="oKhAJ4XqfEPKX5TirftQ-311">
          <mxGeometry relative="1" as="geometry" />
        </mxCell>
        <mxCell id="oKhAJ4XqfEPKX5TirftQ-309" style="edgeStyle=none;rounded=0;orthogonalLoop=1;jettySize=auto;html=1;exitX=1;exitY=1;exitDx=0;exitDy=0;entryX=0.5;entryY=0;entryDx=0;entryDy=0;endArrow=none;endFill=0;sketch=0;" edge="1" parent="1" source="oKhAJ4XqfEPKX5TirftQ-310" target="oKhAJ4XqfEPKX5TirftQ-314">
          <mxGeometry relative="1" as="geometry" />
        </mxCell>
        <mxCell id="oKhAJ4XqfEPKX5TirftQ-310" value="&lt;font face=&quot;Comic Sans MS&quot;&gt;3&lt;/font&gt;" style="ellipse;whiteSpace=wrap;html=1;fillColor=#f5f5f5;strokeColor=#666666;shadow=1;fontColor=#333333;sketch=0;" vertex="1" parent="1">
          <mxGeometry x="831" y="1040" width="40" height="40" as="geometry" />
        </mxCell>
        <mxCell id="oKhAJ4XqfEPKX5TirftQ-311" value="&lt;font face=&quot;Comic Sans MS&quot;&gt;9&lt;/font&gt;" style="ellipse;whiteSpace=wrap;html=1;fillColor=#f5f5f5;strokeColor=#666666;shadow=1;fontColor=#333333;sketch=0;" vertex="1" parent="1">
          <mxGeometry x="791" y="1120" width="40" height="40" as="geometry" />
        </mxCell>
        <mxCell id="oKhAJ4XqfEPKX5TirftQ-312" style="edgeStyle=none;rounded=0;orthogonalLoop=1;jettySize=auto;html=1;exitX=0;exitY=1;exitDx=0;exitDy=0;entryX=0.5;entryY=0;entryDx=0;entryDy=0;endArrow=none;endFill=0;sketch=0;" edge="1" parent="1" source="oKhAJ4XqfEPKX5TirftQ-314" target="oKhAJ4XqfEPKX5TirftQ-315">
          <mxGeometry relative="1" as="geometry" />
        </mxCell>
        <mxCell id="oKhAJ4XqfEPKX5TirftQ-313" style="edgeStyle=none;rounded=0;orthogonalLoop=1;jettySize=auto;html=1;exitX=1;exitY=1;exitDx=0;exitDy=0;entryX=0.5;entryY=0;entryDx=0;entryDy=0;endArrow=none;endFill=0;sketch=0;" edge="1" parent="1" source="oKhAJ4XqfEPKX5TirftQ-314" target="oKhAJ4XqfEPKX5TirftQ-316">
          <mxGeometry relative="1" as="geometry" />
        </mxCell>
        <mxCell id="oKhAJ4XqfEPKX5TirftQ-314" value="&lt;font face=&quot;Comic Sans MS&quot;&gt;20&lt;/font&gt;" style="ellipse;whiteSpace=wrap;html=1;fillColor=#f5f5f5;strokeColor=#666666;shadow=1;fontColor=#333333;sketch=0;" vertex="1" parent="1">
          <mxGeometry x="871" y="1120" width="40" height="40" as="geometry" />
        </mxCell>
        <mxCell id="oKhAJ4XqfEPKX5TirftQ-315" value="&lt;font face=&quot;Comic Sans MS&quot;&gt;15&lt;/font&gt;" style="ellipse;whiteSpace=wrap;html=1;fillColor=#f5f5f5;strokeColor=#666666;shadow=1;fontColor=#333333;sketch=0;" vertex="1" parent="1">
          <mxGeometry x="831" y="1200" width="40" height="40" as="geometry" />
        </mxCell>
        <mxCell id="oKhAJ4XqfEPKX5TirftQ-316" value="&lt;font face=&quot;Comic Sans MS&quot;&gt;7&lt;/font&gt;" style="ellipse;whiteSpace=wrap;html=1;shadow=1;fillColor=#f5f5f5;strokeColor=#666666;sketch=0;fontColor=#333333;" vertex="1" parent="1">
          <mxGeometry x="911" y="1200" width="40" height="40" as="geometry" />
        </mxCell>
        <mxCell id="oKhAJ4XqfEPKX5TirftQ-317" value="&lt;font face=&quot;Comic Sans MS&quot;&gt;Result&lt;/font&gt;" style="text;html=1;strokeColor=none;fillColor=none;align=center;verticalAlign=middle;whiteSpace=wrap;rounded=0;shadow=0;dashed=1;sketch=0;" vertex="1" parent="1">
          <mxGeometry x="1011" y="1250" width="90" height="30" as="geometry" />
        </mxCell>
        <mxCell id="oKhAJ4XqfEPKX5TirftQ-318" value="" style="rounded=0;whiteSpace=wrap;html=1;shadow=0;dashed=1;sketch=0;strokeColor=#666666;opacity=50;fillColor=#f5f5f5;fontColor=#333333;" vertex="1" parent="1">
          <mxGeometry x="1011" y="1040" width="230" height="40" as="geometry" />
        </mxCell>
        <mxCell id="oKhAJ4XqfEPKX5TirftQ-319" value="3" style="ellipse;whiteSpace=wrap;html=1;fillColor=#f5f5f5;strokeColor=#666666;shadow=0;fontColor=#333333;sketch=0;" vertex="1" parent="1">
          <mxGeometry x="1021" y="1045" width="30" height="30" as="geometry" />
        </mxCell>
        <mxCell id="oKhAJ4XqfEPKX5TirftQ-320" value="" style="line;strokeWidth=2;direction=south;html=1;perimeter=backbonePerimeter;points=[];outlineConnect=0;shadow=0;sketch=0;opacity=50;" vertex="1" parent="1">
          <mxGeometry x="1043.5" y="1030" width="27.5" height="60" as="geometry" />
        </mxCell>
        <mxCell id="oKhAJ4XqfEPKX5TirftQ-321" value="&lt;font face=&quot;Comic Sans MS&quot;&gt;Queue&lt;/font&gt;" style="text;html=1;strokeColor=none;fillColor=none;align=center;verticalAlign=middle;whiteSpace=wrap;rounded=0;shadow=0;sketch=0;opacity=50;" vertex="1" parent="1">
          <mxGeometry x="1011" y="1000" width="40" height="40" as="geometry" />
        </mxCell>
        <mxCell id="oKhAJ4XqfEPKX5TirftQ-322" value="&lt;font face=&quot;Comic Sans MS&quot;&gt;第1层&lt;/font&gt;" style="text;html=1;strokeColor=none;fillColor=none;align=center;verticalAlign=middle;whiteSpace=wrap;rounded=0;shadow=0;sketch=0;opacity=50;" vertex="1" parent="1">
          <mxGeometry x="1011" y="1080" width="40" height="30" as="geometry" />
        </mxCell>
        <mxCell id="oKhAJ4XqfEPKX5TirftQ-323" value="迭代:2-3" style="rounded=0;whiteSpace=wrap;html=1;shadow=0;sketch=0;fontFamily=Comic Sans MS;strokeColor=default;strokeWidth=1;opacity=0;" vertex="1" parent="1">
          <mxGeometry x="951" y="960" width="80" height="30" as="geometry" />
        </mxCell>
        <mxCell id="oKhAJ4XqfEPKX5TirftQ-324" value="9" style="ellipse;whiteSpace=wrap;html=1;fillColor=#f5f5f5;strokeColor=#666666;shadow=0;fontColor=#333333;sketch=0;" vertex="1" parent="1">
          <mxGeometry x="1071" y="1045" width="30" height="30" as="geometry" />
        </mxCell>
        <mxCell id="oKhAJ4XqfEPKX5TirftQ-325" value="20" style="ellipse;whiteSpace=wrap;html=1;fillColor=#f8cecc;strokeColor=#b85450;shadow=0;sketch=0;" vertex="1" parent="1">
          <mxGeometry x="1111" y="1045" width="30" height="30" as="geometry" />
        </mxCell>
        <mxCell id="oKhAJ4XqfEPKX5TirftQ-326" value="" style="line;strokeWidth=2;direction=south;html=1;perimeter=backbonePerimeter;points=[];outlineConnect=0;shadow=0;sketch=0;opacity=50;" vertex="1" parent="1">
          <mxGeometry x="1131" y="1030" width="30" height="60" as="geometry" />
        </mxCell>
        <mxCell id="oKhAJ4XqfEPKX5TirftQ-327" value="&lt;font face=&quot;Comic Sans MS&quot;&gt;第2层&lt;/font&gt;" style="text;html=1;strokeColor=none;fillColor=none;align=center;verticalAlign=middle;whiteSpace=wrap;rounded=0;shadow=0;sketch=0;opacity=50;" vertex="1" parent="1">
          <mxGeometry x="1051" y="1080" width="90" height="30" as="geometry" />
        </mxCell>
        <mxCell id="oKhAJ4XqfEPKX5TirftQ-328" value="&lt;font face=&quot;Comic Sans MS&quot;&gt;第1层&lt;/font&gt;" style="text;html=1;strokeColor=none;fillColor=none;align=center;verticalAlign=middle;whiteSpace=wrap;rounded=0;shadow=0;sketch=0;opacity=50;" vertex="1" parent="1">
          <mxGeometry x="691" y="1045" width="40" height="30" as="geometry" />
        </mxCell>
        <mxCell id="oKhAJ4XqfEPKX5TirftQ-329" value="&lt;font face=&quot;Comic Sans MS&quot;&gt;第2层&lt;/font&gt;" style="text;html=1;strokeColor=none;fillColor=none;align=center;verticalAlign=middle;whiteSpace=wrap;rounded=0;shadow=0;sketch=0;opacity=50;" vertex="1" parent="1">
          <mxGeometry x="691" y="1122.5" width="40" height="35" as="geometry" />
        </mxCell>
        <mxCell id="oKhAJ4XqfEPKX5TirftQ-330" value="&lt;font face=&quot;Comic Sans MS&quot;&gt;第3层&lt;/font&gt;" style="text;html=1;strokeColor=none;fillColor=none;align=center;verticalAlign=middle;whiteSpace=wrap;rounded=0;shadow=0;sketch=0;opacity=50;" vertex="1" parent="1">
          <mxGeometry x="691" y="1202.5" width="40" height="35" as="geometry" />
        </mxCell>
        <mxCell id="oKhAJ4XqfEPKX5TirftQ-331" value="3" style="ellipse;whiteSpace=wrap;html=1;fillColor=#dae8fc;strokeColor=#6c8ebf;shadow=0;sketch=0;gradientColor=#7ea6e0;" vertex="1" parent="1">
          <mxGeometry x="1021" y="1130" width="30" height="30" as="geometry" />
        </mxCell>
        <mxCell id="oKhAJ4XqfEPKX5TirftQ-332" value="&lt;font face=&quot;Comic Sans MS&quot;&gt;15&lt;/font&gt;" style="ellipse;whiteSpace=wrap;html=1;fillColor=#f8cecc;strokeColor=#b85450;shadow=0;sketch=0;" vertex="1" parent="1">
          <mxGeometry x="1161" y="1045" width="30" height="30" as="geometry" />
        </mxCell>
        <mxCell id="oKhAJ4XqfEPKX5TirftQ-333" value="&lt;font face=&quot;Comic Sans MS&quot;&gt;第3层&lt;/font&gt;" style="text;html=1;strokeColor=none;fillColor=none;align=center;verticalAlign=middle;whiteSpace=wrap;rounded=0;shadow=0;sketch=0;opacity=50;" vertex="1" parent="1">
          <mxGeometry x="1141" y="1080" width="90" height="30" as="geometry" />
        </mxCell>
        <mxCell id="oKhAJ4XqfEPKX5TirftQ-334" value="&lt;font face=&quot;Comic Sans MS&quot;&gt;9&lt;/font&gt;" style="ellipse;whiteSpace=wrap;html=1;fillColor=#dae8fc;strokeColor=#6c8ebf;shadow=0;sketch=0;gradientColor=#7ea6e0;" vertex="1" parent="1">
          <mxGeometry x="1021" y="1170" width="30" height="30" as="geometry" />
        </mxCell>
        <mxCell id="oKhAJ4XqfEPKX5TirftQ-335" value="&lt;font face=&quot;Comic Sans MS&quot;&gt;7&lt;/font&gt;" style="ellipse;whiteSpace=wrap;html=1;fillColor=#f8cecc;strokeColor=#b85450;shadow=0;sketch=0;" vertex="1" parent="1">
          <mxGeometry x="1201" y="1045" width="30" height="30" as="geometry" />
        </mxCell>
        <mxCell id="oKhAJ4XqfEPKX5TirftQ-336" value="" style="rounded=0;whiteSpace=wrap;html=1;shadow=0;dashed=1;sketch=0;strokeColor=#666666;opacity=50;fillColor=#f5f5f5;fontColor=#333333;" vertex="1" parent="1">
          <mxGeometry x="1010" y="1520" width="90" height="130" as="geometry" />
        </mxCell>
        <mxCell id="oKhAJ4XqfEPKX5TirftQ-337" value="" style="rounded=0;whiteSpace=wrap;html=1;shadow=0;sketch=0;fillColor=#dae8fc;strokeColor=#6c8ebf;opacity=50;dashed=1;" vertex="1" parent="1">
          <mxGeometry x="730" y="1590" width="240" height="60" as="geometry" />
        </mxCell>
        <mxCell id="oKhAJ4XqfEPKX5TirftQ-338" value="" style="rounded=0;whiteSpace=wrap;html=1;shadow=0;sketch=0;fillColor=#ffcd28;strokeColor=#d79b00;opacity=50;dashed=1;gradientColor=#ffa500;" vertex="1" parent="1">
          <mxGeometry x="730" y="1510" width="240" height="60" as="geometry" />
        </mxCell>
        <mxCell id="oKhAJ4XqfEPKX5TirftQ-339" value="" style="rounded=0;whiteSpace=wrap;html=1;shadow=0;sketch=0;fillColor=#dae8fc;strokeColor=#6c8ebf;opacity=50;dashed=1;" vertex="1" parent="1">
          <mxGeometry x="730" y="1430" width="240" height="60" as="geometry" />
        </mxCell>
        <mxCell id="oKhAJ4XqfEPKX5TirftQ-340" style="rounded=0;orthogonalLoop=1;jettySize=auto;html=1;exitX=0;exitY=1;exitDx=0;exitDy=0;entryX=0.5;entryY=0;entryDx=0;entryDy=0;endArrow=none;endFill=0;sketch=0;" edge="1" parent="1" source="oKhAJ4XqfEPKX5TirftQ-342" target="oKhAJ4XqfEPKX5TirftQ-343">
          <mxGeometry relative="1" as="geometry" />
        </mxCell>
        <mxCell id="oKhAJ4XqfEPKX5TirftQ-341" style="edgeStyle=none;rounded=0;orthogonalLoop=1;jettySize=auto;html=1;exitX=1;exitY=1;exitDx=0;exitDy=0;entryX=0.5;entryY=0;entryDx=0;entryDy=0;endArrow=none;endFill=0;sketch=0;" edge="1" parent="1" source="oKhAJ4XqfEPKX5TirftQ-342" target="oKhAJ4XqfEPKX5TirftQ-346">
          <mxGeometry relative="1" as="geometry" />
        </mxCell>
        <mxCell id="oKhAJ4XqfEPKX5TirftQ-342" value="&lt;font face=&quot;Comic Sans MS&quot;&gt;3&lt;/font&gt;" style="ellipse;whiteSpace=wrap;html=1;fillColor=#f5f5f5;strokeColor=#666666;shadow=1;fontColor=#333333;sketch=0;" vertex="1" parent="1">
          <mxGeometry x="830" y="1440" width="40" height="40" as="geometry" />
        </mxCell>
        <mxCell id="oKhAJ4XqfEPKX5TirftQ-343" value="&lt;font face=&quot;Comic Sans MS&quot;&gt;9&lt;/font&gt;" style="ellipse;whiteSpace=wrap;html=1;fillColor=#f5f5f5;strokeColor=#666666;shadow=1;fontColor=#333333;sketch=0;" vertex="1" parent="1">
          <mxGeometry x="790" y="1520" width="40" height="40" as="geometry" />
        </mxCell>
        <mxCell id="oKhAJ4XqfEPKX5TirftQ-344" style="edgeStyle=none;rounded=0;orthogonalLoop=1;jettySize=auto;html=1;exitX=0;exitY=1;exitDx=0;exitDy=0;entryX=0.5;entryY=0;entryDx=0;entryDy=0;endArrow=none;endFill=0;sketch=0;" edge="1" parent="1" source="oKhAJ4XqfEPKX5TirftQ-346" target="oKhAJ4XqfEPKX5TirftQ-347">
          <mxGeometry relative="1" as="geometry" />
        </mxCell>
        <mxCell id="oKhAJ4XqfEPKX5TirftQ-345" style="edgeStyle=none;rounded=0;orthogonalLoop=1;jettySize=auto;html=1;exitX=1;exitY=1;exitDx=0;exitDy=0;entryX=0.5;entryY=0;entryDx=0;entryDy=0;endArrow=none;endFill=0;sketch=0;" edge="1" parent="1" source="oKhAJ4XqfEPKX5TirftQ-346" target="oKhAJ4XqfEPKX5TirftQ-348">
          <mxGeometry relative="1" as="geometry" />
        </mxCell>
        <mxCell id="oKhAJ4XqfEPKX5TirftQ-346" value="&lt;font face=&quot;Comic Sans MS&quot;&gt;20&lt;/font&gt;" style="ellipse;whiteSpace=wrap;html=1;fillColor=#f5f5f5;strokeColor=#666666;shadow=1;fontColor=#333333;sketch=0;" vertex="1" parent="1">
          <mxGeometry x="870" y="1520" width="40" height="40" as="geometry" />
        </mxCell>
        <mxCell id="oKhAJ4XqfEPKX5TirftQ-347" value="&lt;font face=&quot;Comic Sans MS&quot;&gt;15&lt;/font&gt;" style="ellipse;whiteSpace=wrap;html=1;fillColor=#f5f5f5;strokeColor=#666666;shadow=1;fontColor=#333333;sketch=0;" vertex="1" parent="1">
          <mxGeometry x="830" y="1600" width="40" height="40" as="geometry" />
        </mxCell>
        <mxCell id="oKhAJ4XqfEPKX5TirftQ-348" value="&lt;font face=&quot;Comic Sans MS&quot;&gt;7&lt;/font&gt;" style="ellipse;whiteSpace=wrap;html=1;shadow=1;fillColor=#f5f5f5;strokeColor=#666666;sketch=0;fontColor=#333333;" vertex="1" parent="1">
          <mxGeometry x="910" y="1600" width="40" height="40" as="geometry" />
        </mxCell>
        <mxCell id="oKhAJ4XqfEPKX5TirftQ-349" value="&lt;font face=&quot;Comic Sans MS&quot;&gt;Result&lt;/font&gt;" style="text;html=1;strokeColor=none;fillColor=none;align=center;verticalAlign=middle;whiteSpace=wrap;rounded=0;shadow=0;dashed=1;sketch=0;" vertex="1" parent="1">
          <mxGeometry x="1010" y="1650" width="90" height="30" as="geometry" />
        </mxCell>
        <mxCell id="oKhAJ4XqfEPKX5TirftQ-350" value="" style="rounded=0;whiteSpace=wrap;html=1;shadow=0;dashed=1;sketch=0;strokeColor=#666666;opacity=50;fillColor=#f5f5f5;fontColor=#333333;" vertex="1" parent="1">
          <mxGeometry x="1010" y="1440" width="230" height="40" as="geometry" />
        </mxCell>
        <mxCell id="oKhAJ4XqfEPKX5TirftQ-351" value="3" style="ellipse;whiteSpace=wrap;html=1;fillColor=#f5f5f5;strokeColor=#666666;shadow=0;fontColor=#333333;sketch=0;" vertex="1" parent="1">
          <mxGeometry x="1020" y="1445" width="30" height="30" as="geometry" />
        </mxCell>
        <mxCell id="oKhAJ4XqfEPKX5TirftQ-352" value="" style="line;strokeWidth=2;direction=south;html=1;perimeter=backbonePerimeter;points=[];outlineConnect=0;shadow=0;sketch=0;opacity=50;" vertex="1" parent="1">
          <mxGeometry x="1042.5" y="1430" width="27.5" height="60" as="geometry" />
        </mxCell>
        <mxCell id="oKhAJ4XqfEPKX5TirftQ-353" value="&lt;font face=&quot;Comic Sans MS&quot;&gt;Queue&lt;/font&gt;" style="text;html=1;strokeColor=none;fillColor=none;align=center;verticalAlign=middle;whiteSpace=wrap;rounded=0;shadow=0;sketch=0;opacity=50;" vertex="1" parent="1">
          <mxGeometry x="1010" y="1400" width="40" height="40" as="geometry" />
        </mxCell>
        <mxCell id="oKhAJ4XqfEPKX5TirftQ-354" value="&lt;font face=&quot;Comic Sans MS&quot;&gt;第1层&lt;/font&gt;" style="text;html=1;strokeColor=none;fillColor=none;align=center;verticalAlign=middle;whiteSpace=wrap;rounded=0;shadow=0;sketch=0;opacity=50;" vertex="1" parent="1">
          <mxGeometry x="1010" y="1480" width="40" height="30" as="geometry" />
        </mxCell>
        <mxCell id="oKhAJ4XqfEPKX5TirftQ-355" value="迭代:2-4" style="rounded=0;whiteSpace=wrap;html=1;shadow=0;sketch=0;fontFamily=Comic Sans MS;strokeColor=default;strokeWidth=1;opacity=0;" vertex="1" parent="1">
          <mxGeometry x="950" y="1360" width="80" height="30" as="geometry" />
        </mxCell>
        <mxCell id="oKhAJ4XqfEPKX5TirftQ-356" value="9" style="ellipse;whiteSpace=wrap;html=1;fillColor=#f5f5f5;strokeColor=#666666;shadow=0;fontColor=#333333;sketch=0;" vertex="1" parent="1">
          <mxGeometry x="1070" y="1445" width="30" height="30" as="geometry" />
        </mxCell>
        <mxCell id="oKhAJ4XqfEPKX5TirftQ-357" value="20" style="ellipse;whiteSpace=wrap;html=1;fillColor=#f5f5f5;strokeColor=#666666;shadow=0;sketch=0;fontColor=#333333;" vertex="1" parent="1">
          <mxGeometry x="1110" y="1445" width="30" height="30" as="geometry" />
        </mxCell>
        <mxCell id="oKhAJ4XqfEPKX5TirftQ-358" value="" style="line;strokeWidth=2;direction=south;html=1;perimeter=backbonePerimeter;points=[];outlineConnect=0;shadow=0;sketch=0;opacity=50;" vertex="1" parent="1">
          <mxGeometry x="1130" y="1430" width="30" height="60" as="geometry" />
        </mxCell>
        <mxCell id="oKhAJ4XqfEPKX5TirftQ-359" value="&lt;font face=&quot;Comic Sans MS&quot;&gt;第2层&lt;/font&gt;" style="text;html=1;strokeColor=none;fillColor=none;align=center;verticalAlign=middle;whiteSpace=wrap;rounded=0;shadow=0;sketch=0;opacity=50;" vertex="1" parent="1">
          <mxGeometry x="1050" y="1480" width="90" height="30" as="geometry" />
        </mxCell>
        <mxCell id="oKhAJ4XqfEPKX5TirftQ-360" value="&lt;font face=&quot;Comic Sans MS&quot;&gt;第1层&lt;/font&gt;" style="text;html=1;strokeColor=none;fillColor=none;align=center;verticalAlign=middle;whiteSpace=wrap;rounded=0;shadow=0;sketch=0;opacity=50;" vertex="1" parent="1">
          <mxGeometry x="690" y="1445" width="40" height="30" as="geometry" />
        </mxCell>
        <mxCell id="oKhAJ4XqfEPKX5TirftQ-361" value="&lt;font face=&quot;Comic Sans MS&quot;&gt;第2层&lt;/font&gt;" style="text;html=1;strokeColor=none;fillColor=none;align=center;verticalAlign=middle;whiteSpace=wrap;rounded=0;shadow=0;sketch=0;opacity=50;" vertex="1" parent="1">
          <mxGeometry x="690" y="1522.5" width="40" height="35" as="geometry" />
        </mxCell>
        <mxCell id="oKhAJ4XqfEPKX5TirftQ-362" value="&lt;font face=&quot;Comic Sans MS&quot;&gt;第3层&lt;/font&gt;" style="text;html=1;strokeColor=none;fillColor=none;align=center;verticalAlign=middle;whiteSpace=wrap;rounded=0;shadow=0;sketch=0;opacity=50;" vertex="1" parent="1">
          <mxGeometry x="690" y="1602.5" width="40" height="35" as="geometry" />
        </mxCell>
        <mxCell id="oKhAJ4XqfEPKX5TirftQ-363" value="3" style="ellipse;whiteSpace=wrap;html=1;fillColor=#dae8fc;strokeColor=#6c8ebf;shadow=0;sketch=0;gradientColor=#7ea6e0;" vertex="1" parent="1">
          <mxGeometry x="1020" y="1530" width="30" height="30" as="geometry" />
        </mxCell>
        <mxCell id="oKhAJ4XqfEPKX5TirftQ-364" value="&lt;font face=&quot;Comic Sans MS&quot;&gt;15&lt;/font&gt;" style="ellipse;whiteSpace=wrap;html=1;fillColor=#f8cecc;strokeColor=#b85450;shadow=0;sketch=0;" vertex="1" parent="1">
          <mxGeometry x="1160" y="1445" width="30" height="30" as="geometry" />
        </mxCell>
        <mxCell id="oKhAJ4XqfEPKX5TirftQ-365" value="&lt;font face=&quot;Comic Sans MS&quot;&gt;第3层&lt;/font&gt;" style="text;html=1;strokeColor=none;fillColor=none;align=center;verticalAlign=middle;whiteSpace=wrap;rounded=0;shadow=0;sketch=0;opacity=50;" vertex="1" parent="1">
          <mxGeometry x="1140" y="1480" width="90" height="30" as="geometry" />
        </mxCell>
        <mxCell id="oKhAJ4XqfEPKX5TirftQ-366" value="&lt;font face=&quot;Comic Sans MS&quot;&gt;9&lt;/font&gt;" style="ellipse;whiteSpace=wrap;html=1;fillColor=#dae8fc;strokeColor=#6c8ebf;shadow=0;sketch=0;gradientColor=#7ea6e0;" vertex="1" parent="1">
          <mxGeometry x="1020" y="1570" width="30" height="30" as="geometry" />
        </mxCell>
        <mxCell id="oKhAJ4XqfEPKX5TirftQ-367" value="&lt;font face=&quot;Comic Sans MS&quot;&gt;7&lt;/font&gt;" style="ellipse;whiteSpace=wrap;html=1;fillColor=#f8cecc;strokeColor=#b85450;shadow=0;sketch=0;" vertex="1" parent="1">
          <mxGeometry x="1200" y="1445" width="30" height="30" as="geometry" />
        </mxCell>
        <mxCell id="oKhAJ4XqfEPKX5TirftQ-368" value="20" style="ellipse;whiteSpace=wrap;html=1;fillColor=#dae8fc;strokeColor=#6c8ebf;shadow=0;sketch=0;gradientColor=#7ea6e0;" vertex="1" parent="1">
          <mxGeometry x="1060" y="1570" width="30" height="30" as="geometry" />
        </mxCell>
        <mxCell id="oKhAJ4XqfEPKX5TirftQ-369" value="&lt;font face=&quot;Comic Sans MS&quot;&gt;15&lt;/font&gt;" style="ellipse;whiteSpace=wrap;html=1;fillColor=#dae8fc;strokeColor=#6c8ebf;shadow=0;sketch=0;gradientColor=#7ea6e0;" vertex="1" parent="1">
          <mxGeometry x="430" y="370" width="30" height="30" as="geometry" />
        </mxCell>
        <mxCell id="oKhAJ4XqfEPKX5TirftQ-370" value="" style="rounded=0;whiteSpace=wrap;html=1;shadow=0;dashed=1;sketch=0;strokeColor=#666666;opacity=50;fillColor=#f5f5f5;fontColor=#333333;" vertex="1" parent="1">
          <mxGeometry x="410" y="680" width="90" height="130" as="geometry" />
        </mxCell>
        <mxCell id="oKhAJ4XqfEPKX5TirftQ-371" value="" style="rounded=0;whiteSpace=wrap;html=1;shadow=0;sketch=0;fillColor=#ffcd28;strokeColor=#d79b00;opacity=50;dashed=1;gradientColor=#ffa500;" vertex="1" parent="1">
          <mxGeometry x="130" y="750" width="240" height="60" as="geometry" />
        </mxCell>
        <mxCell id="oKhAJ4XqfEPKX5TirftQ-372" value="" style="rounded=0;whiteSpace=wrap;html=1;shadow=0;sketch=0;fillColor=#dae8fc;strokeColor=#6c8ebf;opacity=50;dashed=1;" vertex="1" parent="1">
          <mxGeometry x="130" y="670" width="240" height="60" as="geometry" />
        </mxCell>
        <mxCell id="oKhAJ4XqfEPKX5TirftQ-373" value="" style="rounded=0;whiteSpace=wrap;html=1;shadow=0;sketch=0;fillColor=#dae8fc;strokeColor=#6c8ebf;opacity=50;dashed=1;" vertex="1" parent="1">
          <mxGeometry x="130" y="590" width="240" height="60" as="geometry" />
        </mxCell>
        <mxCell id="oKhAJ4XqfEPKX5TirftQ-374" style="rounded=0;orthogonalLoop=1;jettySize=auto;html=1;exitX=0;exitY=1;exitDx=0;exitDy=0;entryX=0.5;entryY=0;entryDx=0;entryDy=0;endArrow=none;endFill=0;sketch=0;" edge="1" parent="1" source="oKhAJ4XqfEPKX5TirftQ-376" target="oKhAJ4XqfEPKX5TirftQ-377">
          <mxGeometry relative="1" as="geometry" />
        </mxCell>
        <mxCell id="oKhAJ4XqfEPKX5TirftQ-375" style="edgeStyle=none;rounded=0;orthogonalLoop=1;jettySize=auto;html=1;exitX=1;exitY=1;exitDx=0;exitDy=0;entryX=0.5;entryY=0;entryDx=0;entryDy=0;endArrow=none;endFill=0;sketch=0;" edge="1" parent="1" source="oKhAJ4XqfEPKX5TirftQ-376" target="oKhAJ4XqfEPKX5TirftQ-380">
          <mxGeometry relative="1" as="geometry" />
        </mxCell>
        <mxCell id="oKhAJ4XqfEPKX5TirftQ-376" value="&lt;font face=&quot;Comic Sans MS&quot;&gt;3&lt;/font&gt;" style="ellipse;whiteSpace=wrap;html=1;fillColor=#f5f5f5;strokeColor=#666666;shadow=1;fontColor=#333333;sketch=0;" vertex="1" parent="1">
          <mxGeometry x="230" y="600" width="40" height="40" as="geometry" />
        </mxCell>
        <mxCell id="oKhAJ4XqfEPKX5TirftQ-377" value="&lt;font face=&quot;Comic Sans MS&quot;&gt;9&lt;/font&gt;" style="ellipse;whiteSpace=wrap;html=1;fillColor=#f5f5f5;strokeColor=#666666;shadow=1;fontColor=#333333;sketch=0;" vertex="1" parent="1">
          <mxGeometry x="190" y="680" width="40" height="40" as="geometry" />
        </mxCell>
        <mxCell id="oKhAJ4XqfEPKX5TirftQ-378" style="edgeStyle=none;rounded=0;orthogonalLoop=1;jettySize=auto;html=1;exitX=0;exitY=1;exitDx=0;exitDy=0;entryX=0.5;entryY=0;entryDx=0;entryDy=0;endArrow=none;endFill=0;sketch=0;" edge="1" parent="1" source="oKhAJ4XqfEPKX5TirftQ-380" target="oKhAJ4XqfEPKX5TirftQ-381">
          <mxGeometry relative="1" as="geometry" />
        </mxCell>
        <mxCell id="oKhAJ4XqfEPKX5TirftQ-379" style="edgeStyle=none;rounded=0;orthogonalLoop=1;jettySize=auto;html=1;exitX=1;exitY=1;exitDx=0;exitDy=0;entryX=0.5;entryY=0;entryDx=0;entryDy=0;endArrow=none;endFill=0;sketch=0;" edge="1" parent="1" source="oKhAJ4XqfEPKX5TirftQ-380" target="oKhAJ4XqfEPKX5TirftQ-382">
          <mxGeometry relative="1" as="geometry" />
        </mxCell>
        <mxCell id="oKhAJ4XqfEPKX5TirftQ-380" value="&lt;font face=&quot;Comic Sans MS&quot;&gt;20&lt;/font&gt;" style="ellipse;whiteSpace=wrap;html=1;fillColor=#f5f5f5;strokeColor=#666666;shadow=1;fontColor=#333333;sketch=0;" vertex="1" parent="1">
          <mxGeometry x="270" y="680" width="40" height="40" as="geometry" />
        </mxCell>
        <mxCell id="oKhAJ4XqfEPKX5TirftQ-381" value="&lt;font face=&quot;Comic Sans MS&quot;&gt;15&lt;/font&gt;" style="ellipse;whiteSpace=wrap;html=1;fillColor=#f5f5f5;strokeColor=#666666;shadow=1;fontColor=#333333;sketch=0;" vertex="1" parent="1">
          <mxGeometry x="230" y="760" width="40" height="40" as="geometry" />
        </mxCell>
        <mxCell id="oKhAJ4XqfEPKX5TirftQ-382" value="&lt;font face=&quot;Comic Sans MS&quot;&gt;7&lt;/font&gt;" style="ellipse;whiteSpace=wrap;html=1;shadow=1;fillColor=#f5f5f5;fontColor=#333333;strokeColor=#666666;sketch=0;" vertex="1" parent="1">
          <mxGeometry x="310" y="760" width="40" height="40" as="geometry" />
        </mxCell>
        <mxCell id="oKhAJ4XqfEPKX5TirftQ-383" value="&lt;font face=&quot;Comic Sans MS&quot;&gt;Result&lt;/font&gt;" style="text;html=1;strokeColor=none;fillColor=none;align=center;verticalAlign=middle;whiteSpace=wrap;rounded=0;shadow=0;dashed=1;sketch=0;" vertex="1" parent="1">
          <mxGeometry x="410" y="810" width="90" height="30" as="geometry" />
        </mxCell>
        <mxCell id="oKhAJ4XqfEPKX5TirftQ-384" value="" style="rounded=0;whiteSpace=wrap;html=1;shadow=0;dashed=1;sketch=0;strokeColor=#666666;opacity=50;fillColor=#f5f5f5;fontColor=#333333;" vertex="1" parent="1">
          <mxGeometry x="410" y="600" width="230" height="40" as="geometry" />
        </mxCell>
        <mxCell id="oKhAJ4XqfEPKX5TirftQ-385" value="3" style="ellipse;whiteSpace=wrap;html=1;fillColor=#f5f5f5;strokeColor=#666666;shadow=0;fontColor=#333333;sketch=0;" vertex="1" parent="1">
          <mxGeometry x="420" y="605" width="30" height="30" as="geometry" />
        </mxCell>
        <mxCell id="oKhAJ4XqfEPKX5TirftQ-386" value="" style="line;strokeWidth=2;direction=south;html=1;perimeter=backbonePerimeter;points=[];outlineConnect=0;shadow=0;sketch=0;opacity=50;" vertex="1" parent="1">
          <mxGeometry x="442.5" y="590" width="27.5" height="60" as="geometry" />
        </mxCell>
        <mxCell id="oKhAJ4XqfEPKX5TirftQ-387" value="&lt;font face=&quot;Comic Sans MS&quot;&gt;Queue&lt;/font&gt;" style="text;html=1;strokeColor=none;fillColor=none;align=center;verticalAlign=middle;whiteSpace=wrap;rounded=0;shadow=0;sketch=0;opacity=50;" vertex="1" parent="1">
          <mxGeometry x="410" y="560" width="40" height="40" as="geometry" />
        </mxCell>
        <mxCell id="oKhAJ4XqfEPKX5TirftQ-388" value="&lt;font face=&quot;Comic Sans MS&quot;&gt;第1层&lt;/font&gt;" style="text;html=1;strokeColor=none;fillColor=none;align=center;verticalAlign=middle;whiteSpace=wrap;rounded=0;shadow=0;sketch=0;opacity=50;" vertex="1" parent="1">
          <mxGeometry x="410" y="640" width="40" height="30" as="geometry" />
        </mxCell>
        <mxCell id="oKhAJ4XqfEPKX5TirftQ-389" value="迭代:3-2" style="rounded=0;whiteSpace=wrap;html=1;shadow=0;sketch=0;fontFamily=Comic Sans MS;strokeColor=default;strokeWidth=1;opacity=0;" vertex="1" parent="1">
          <mxGeometry x="350" y="520" width="80" height="30" as="geometry" />
        </mxCell>
        <mxCell id="oKhAJ4XqfEPKX5TirftQ-390" value="9" style="ellipse;whiteSpace=wrap;html=1;fillColor=#f5f5f5;strokeColor=#666666;shadow=0;fontColor=#333333;sketch=0;" vertex="1" parent="1">
          <mxGeometry x="470" y="605" width="30" height="30" as="geometry" />
        </mxCell>
        <mxCell id="oKhAJ4XqfEPKX5TirftQ-391" value="20" style="ellipse;whiteSpace=wrap;html=1;fillColor=#f5f5f5;strokeColor=#666666;shadow=0;fontColor=#333333;sketch=0;" vertex="1" parent="1">
          <mxGeometry x="510" y="605" width="30" height="30" as="geometry" />
        </mxCell>
        <mxCell id="oKhAJ4XqfEPKX5TirftQ-392" value="" style="line;strokeWidth=2;direction=south;html=1;perimeter=backbonePerimeter;points=[];outlineConnect=0;shadow=0;sketch=0;opacity=50;" vertex="1" parent="1">
          <mxGeometry x="530" y="590" width="30" height="60" as="geometry" />
        </mxCell>
        <mxCell id="oKhAJ4XqfEPKX5TirftQ-393" value="&lt;font face=&quot;Comic Sans MS&quot;&gt;第2层&lt;/font&gt;" style="text;html=1;strokeColor=none;fillColor=none;align=center;verticalAlign=middle;whiteSpace=wrap;rounded=0;shadow=0;sketch=0;opacity=50;" vertex="1" parent="1">
          <mxGeometry x="450" y="640" width="90" height="30" as="geometry" />
        </mxCell>
        <mxCell id="oKhAJ4XqfEPKX5TirftQ-394" value="&lt;font face=&quot;Comic Sans MS&quot;&gt;第1层&lt;/font&gt;" style="text;html=1;strokeColor=none;fillColor=none;align=center;verticalAlign=middle;whiteSpace=wrap;rounded=0;shadow=0;sketch=0;opacity=50;" vertex="1" parent="1">
          <mxGeometry x="90" y="605" width="40" height="30" as="geometry" />
        </mxCell>
        <mxCell id="oKhAJ4XqfEPKX5TirftQ-395" value="&lt;font face=&quot;Comic Sans MS&quot;&gt;第2层&lt;/font&gt;" style="text;html=1;strokeColor=none;fillColor=none;align=center;verticalAlign=middle;whiteSpace=wrap;rounded=0;shadow=0;sketch=0;opacity=50;" vertex="1" parent="1">
          <mxGeometry x="90" y="682.5" width="40" height="35" as="geometry" />
        </mxCell>
        <mxCell id="oKhAJ4XqfEPKX5TirftQ-396" value="&lt;font face=&quot;Comic Sans MS&quot;&gt;第3层&lt;/font&gt;" style="text;html=1;strokeColor=none;fillColor=none;align=center;verticalAlign=middle;whiteSpace=wrap;rounded=0;shadow=0;sketch=0;opacity=50;" vertex="1" parent="1">
          <mxGeometry x="90" y="762.5" width="40" height="35" as="geometry" />
        </mxCell>
        <mxCell id="oKhAJ4XqfEPKX5TirftQ-397" value="3" style="ellipse;whiteSpace=wrap;html=1;fillColor=#dae8fc;strokeColor=#6c8ebf;shadow=0;sketch=0;gradientColor=#7ea6e0;" vertex="1" parent="1">
          <mxGeometry x="420" y="690" width="30" height="30" as="geometry" />
        </mxCell>
        <mxCell id="oKhAJ4XqfEPKX5TirftQ-398" value="&lt;font face=&quot;Comic Sans MS&quot;&gt;15&lt;/font&gt;" style="ellipse;whiteSpace=wrap;html=1;fillColor=#f5f5f5;strokeColor=#666666;shadow=0;sketch=0;fontColor=#333333;" vertex="1" parent="1">
          <mxGeometry x="560" y="605" width="30" height="30" as="geometry" />
        </mxCell>
        <mxCell id="oKhAJ4XqfEPKX5TirftQ-399" value="&lt;font face=&quot;Comic Sans MS&quot;&gt;7&lt;/font&gt;" style="ellipse;whiteSpace=wrap;html=1;fillColor=#f5f5f5;strokeColor=#666666;shadow=0;sketch=0;fontColor=#333333;" vertex="1" parent="1">
          <mxGeometry x="600" y="605" width="30" height="30" as="geometry" />
        </mxCell>
        <mxCell id="oKhAJ4XqfEPKX5TirftQ-400" value="&lt;font face=&quot;Comic Sans MS&quot;&gt;第3层&lt;/font&gt;" style="text;html=1;strokeColor=none;fillColor=none;align=center;verticalAlign=middle;whiteSpace=wrap;rounded=0;shadow=0;sketch=0;opacity=50;" vertex="1" parent="1">
          <mxGeometry x="540" y="640" width="90" height="30" as="geometry" />
        </mxCell>
        <mxCell id="oKhAJ4XqfEPKX5TirftQ-401" value="&lt;font face=&quot;Comic Sans MS&quot;&gt;9&lt;/font&gt;" style="ellipse;whiteSpace=wrap;html=1;fillColor=#dae8fc;strokeColor=#6c8ebf;shadow=0;sketch=0;gradientColor=#7ea6e0;" vertex="1" parent="1">
          <mxGeometry x="420" y="730" width="30" height="30" as="geometry" />
        </mxCell>
        <mxCell id="oKhAJ4XqfEPKX5TirftQ-402" value="&lt;font face=&quot;Comic Sans MS&quot;&gt;20&lt;/font&gt;" style="ellipse;whiteSpace=wrap;html=1;fillColor=#dae8fc;strokeColor=#6c8ebf;shadow=0;sketch=0;gradientColor=#7ea6e0;" vertex="1" parent="1">
          <mxGeometry x="460" y="730" width="30" height="30" as="geometry" />
        </mxCell>
        <mxCell id="oKhAJ4XqfEPKX5TirftQ-403" value="&lt;font face=&quot;Comic Sans MS&quot;&gt;15&lt;/font&gt;" style="ellipse;whiteSpace=wrap;html=1;fillColor=#dae8fc;strokeColor=#6c8ebf;shadow=0;sketch=0;gradientColor=#7ea6e0;" vertex="1" parent="1">
          <mxGeometry x="420" y="770" width="30" height="30" as="geometry" />
        </mxCell>
        <mxCell id="oKhAJ4XqfEPKX5TirftQ-404" value="&lt;font face=&quot;Comic Sans MS&quot;&gt;7&lt;/font&gt;" style="ellipse;whiteSpace=wrap;html=1;fillColor=#dae8fc;strokeColor=#6c8ebf;shadow=0;sketch=0;gradientColor=#7ea6e0;" vertex="1" parent="1">
          <mxGeometry x="460" y="770" width="30" height="30" as="geometry" />
        </mxCell>
      </root>
    </mxGraphModel>
  </diagram>
</mxfile>
